<svg id="visual" viewBox="0 0 1200 3000" width="1200" height="3000" xmlns="http://www.w3.org/2000/svg" xmlns:xlink="http://www.w3.org/1999/xlink" version="1.1"><path d="M0 361L71 361L71 331L141 331L141 481L212 481L212 331L282 331L282 361L353 361L353 421L424 421L424 421L494 421L494 361L565 361L565 271L635 271L635 331L706 331L706 421L776 421L776 301L847 301L847 421L918 421L918 511L988 511L988 301L1059 301L1059 301L1129 301L1129 481L1200 481L1200 331L1200 0L1200 0L1129 0L1129 0L1059 0L1059 0L988 0L988 0L918 0L918 0L847 0L847 0L776 0L776 0L706 0L706 0L635 0L635 0L565 0L565 0L494 0L494 0L424 0L424 0L353 0L353 0L282 0L282 0L212 0L212 0L141 0L141 0L71 0L71 0L0 0Z" fill="#fec53a"></path><path d="M0 541L71 541L71 481L141 481L141 661L212 661L212 451L282 451L282 541L353 541L353 541L424 541L424 601L494 601L494 541L565 541L565 451L635 451L635 481L706 481L706 541L776 541L776 451L847 451L847 541L918 541L918 661L988 661L988 481L1059 481L1059 421L1129 421L1129 601L1200 601L1200 451L1200 329L1200 479L1129 479L1129 299L1059 299L1059 299L988 299L988 509L918 509L918 419L847 419L847 299L776 299L776 419L706 419L706 329L635 329L635 269L565 269L565 359L494 359L494 419L424 419L424 419L353 419L353 359L282 359L282 329L212 329L212 479L141 479L141 329L71 329L71 359L0 359Z" fill="#ffd371"></path><path d="M0 721L71 721L71 661L141 661L141 781L212 781L212 661L282 661L282 661L353 661L353 751L424 751L424 811L494 811L494 721L565 721L565 601L635 601L635 631L706 631L706 661L776 661L776 571L847 571L847 721L918 721L918 781L988 781L988 631L1059 631L1059 631L1129 631L1129 781L1200 781L1200 571L1200 449L1200 599L1129 599L1129 419L1059 419L1059 479L988 479L988 659L918 659L918 539L847 539L847 449L776 449L776 539L706 539L706 479L635 479L635 449L565 449L565 539L494 539L494 599L424 599L424 539L353 539L353 539L282 539L282 449L212 449L212 659L141 659L141 479L71 479L71 539L0 539Z" fill="#ffe1a1"></path><path d="M0 871L71 871L71 811L141 811L141 901L212 901L212 781L282 781L282 811L353 811L353 931L424 931L424 961L494 961L494 841L565 841L565 781L635 781L635 841L706 841L706 841L776 841L776 691L847 691L847 931L918 931L918 961L988 961L988 841L1059 841L1059 751L1129 751L1129 901L1200 901L1200 751L1200 569L1200 779L1129 779L1129 629L1059 629L1059 629L988 629L988 779L918 779L918 719L847 719L847 569L776 569L776 659L706 659L706 629L635 629L635 599L565 599L565 719L494 719L494 809L424 809L424 749L353 749L353 659L282 659L282 659L212 659L212 779L141 779L141 659L71 659L71 719L0 719Z" fill="#fff0d0"></path><path d="M0 991L71 991L71 931L141 931L141 1021L212 1021L212 871L282 871L282 931L353 931L353 1111L424 1111L424 1051L494 1051L494 991L565 991L565 931L635 931L635 931L706 931L706 991L776 991L776 811L847 811L847 1081L918 1081L918 1051L988 1051L988 931L1059 931L1059 841L1129 841L1129 991L1200 991L1200 901L1200 749L1200 899L1129 899L1129 749L1059 749L1059 839L988 839L988 959L918 959L918 929L847 929L847 689L776 689L776 839L706 839L706 839L635 839L635 779L565 779L565 839L494 839L494 959L424 959L424 929L353 929L353 809L282 809L282 779L212 779L212 899L141 899L141 809L71 809L71 869L0 869Z" fill="#ffffff"></path><path d="M0 1621L71 1621L71 1741L141 1741L141 1471L212 1471L212 1621L282 1621L282 1531L353 1531L353 1651L424 1651L424 1591L494 1591L494 1441L565 1441L565 1621L635 1621L635 1321L706 1321L706 1531L776 1531L776 1561L847 1561L847 1711L918 1711L918 1621L988 1621L988 1651L1059 1651L1059 1351L1129 1351L1129 1501L1200 1501L1200 1561L1200 899L1200 989L1129 989L1129 839L1059 839L1059 929L988 929L988 1049L918 1049L918 1079L847 1079L847 809L776 809L776 989L706 989L706 929L635 929L635 929L565 929L565 989L494 989L494 1049L424 1049L424 1109L353 1109L353 929L282 929L282 869L212 869L212 1019L141 1019L141 929L71 929L71 989L0 989Z" fill="#ffffff"></path><path d="M0 2221L71 2221L71 2311L141 2311L141 2191L212 2191L212 2071L282 2071L282 2161L353 2161L353 2311L424 2311L424 2161L494 2161L494 2161L565 2161L565 2101L635 2101L635 2041L706 2041L706 2131L776 2131L776 2071L847 2071L847 2251L918 2251L918 2281L988 2281L988 2311L1059 2311L1059 2161L1129 2161L1129 2101L1200 2101L1200 2071L1200 1559L1200 1499L1129 1499L1129 1349L1059 1349L1059 1649L988 1649L988 1619L918 1619L918 1709L847 1709L847 1559L776 1559L776 1529L706 1529L706 1319L635 1319L635 1619L565 1619L565 1439L494 1439L494 1589L424 1589L424 1649L353 1649L353 1529L282 1529L282 1619L212 1619L212 1469L141 1469L141 1739L71 1739L71 1619L0 1619Z" fill="#ffffff"></path><path d="M0 2461L71 2461L71 2521L141 2521L141 2401L212 2401L212 2341L282 2341L282 2551L353 2551L353 2551L424 2551L424 2491L494 2491L494 2491L565 2491L565 2461L635 2461L635 2401L706 2401L706 2431L776 2431L776 2431L847 2431L847 2431L918 2431L918 2491L988 2491L988 2521L1059 2521L1059 2461L1129 2461L1129 2401L1200 2401L1200 2371L1200 2069L1200 2099L1129 2099L1129 2159L1059 2159L1059 2309L988 2309L988 2279L918 2279L918 2249L847 2249L847 2069L776 2069L776 2129L706 2129L706 2039L635 2039L635 2099L565 2099L565 2159L494 2159L494 2159L424 2159L424 2309L353 2309L353 2159L282 2159L282 2069L212 2069L212 2189L141 2189L141 2309L71 2309L71 2219L0 2219Z" fill="#fff0d0"></path><path d="M0 2611L71 2611L71 2701L141 2701L141 2551L212 2551L212 2581L282 2581L282 2701L353 2701L353 2761L424 2761L424 2641L494 2641L494 2671L565 2671L565 2701L635 2701L635 2641L706 2641L706 2641L776 2641L776 2641L847 2641L847 2611L918 2611L918 2641L988 2641L988 2701L1059 2701L1059 2731L1129 2731L1129 2641L1200 2641L1200 2581L1200 2369L1200 2399L1129 2399L1129 2459L1059 2459L1059 2519L988 2519L988 2489L918 2489L918 2429L847 2429L847 2429L776 2429L776 2429L706 2429L706 2399L635 2399L635 2459L565 2459L565 2489L494 2489L494 2489L424 2489L424 2549L353 2549L353 2549L282 2549L282 2339L212 2339L212 2399L141 2399L141 2519L71 2519L71 2459L0 2459Z" fill="#ffe1a1"></path><path d="M0 2911L71 2911L71 2881L141 2881L141 2851L212 2851L212 2851L282 2851L282 2881L353 2881L353 2911L424 2911L424 2911L494 2911L494 2911L565 2911L565 2851L635 2851L635 2851L706 2851L706 2851L776 2851L776 2881L847 2881L847 2881L918 2881L918 2851L988 2851L988 2851L1059 2851L1059 2911L1129 2911L1129 2851L1200 2851L1200 2851L1200 2579L1200 2639L1129 2639L1129 2729L1059 2729L1059 2699L988 2699L988 2639L918 2639L918 2609L847 2609L847 2639L776 2639L776 2639L706 2639L706 2639L635 2639L635 2699L565 2699L565 2669L494 2669L494 2639L424 2639L424 2759L353 2759L353 2699L282 2699L282 2579L212 2579L212 2549L141 2549L141 2699L71 2699L71 2609L0 2609Z" fill="#ffd371"></path><path d="M0 3001L71 3001L71 3001L141 3001L141 3001L212 3001L212 3001L282 3001L282 3001L353 3001L353 3001L424 3001L424 3001L494 3001L494 3001L565 3001L565 3001L635 3001L635 3001L706 3001L706 3001L776 3001L776 3001L847 3001L847 3001L918 3001L918 3001L988 3001L988 3001L1059 3001L1059 3001L1129 3001L1129 3001L1200 3001L1200 3001L1200 2849L1200 2849L1129 2849L1129 2909L1059 2909L1059 2849L988 2849L988 2849L918 2849L918 2879L847 2879L847 2879L776 2879L776 2849L706 2849L706 2849L635 2849L635 2849L565 2849L565 2909L494 2909L494 2909L424 2909L424 2909L353 2909L353 2879L282 2879L282 2849L212 2849L212 2849L141 2849L141 2879L71 2879L71 2909L0 2909Z" fill="#fec53a"></path></svg>