<svg id="visual" viewBox="0 0 900 600" width="900" height="600" xmlns="http://www.w3.org/2000/svg" xmlns:xlink="http://www.w3.org/1999/xlink" version="1.1"><rect width="900" height="600" fill="#11385b"></rect><g><g transform="translate(262 132)"><path d="M0 -42.9L37.2 -21.5L37.2 21.5L0 42.9L-37.2 21.5L-37.2 -21.5Z" fill="none" stroke="#fec35a" stroke-width="2"></path></g><g transform="translate(880 401)"><path d="M0 -20L17.3 -10L17.3 10L0 20L-17.3 10L-17.3 -10Z" fill="none" stroke="#fec35a" stroke-width="2"></path></g><g transform="translate(504 401)"><path d="M0 -28L24.2 -14L24.2 14L0 28L-24.2 14L-24.2 -14Z" fill="none" stroke="#fec35a" stroke-width="2"></path></g><g transform="translate(490 140)"><path d="M0 -16L13.9 -8L13.9 8L0 16L-13.9 8L-13.9 -8Z" fill="none" stroke="#fec35a" stroke-width="2"></path></g><g transform="translate(191 460)"><path d="M0 -25L21.7 -12.5L21.7 12.5L0 25L-21.7 12.5L-21.7 -12.5Z" fill="none" stroke="#fec35a" stroke-width="2"></path></g><g transform="translate(358 466)"><path d="M0 -21L18.2 -10.5L18.2 10.5L0 21L-18.2 10.5L-18.2 -10.5Z" fill="none" stroke="#fec35a" stroke-width="2"></path></g><g transform="translate(351 143)"><path d="M0 -20L17.3 -10L17.3 10L0 20L-17.3 10L-17.3 -10Z" stroke="#fec35a" fill="none" stroke-width="2"></path></g><g transform="translate(406 251)"><path d="M0 -31L26.8 -15.5L26.8 15.5L0 31L-26.8 15.5L-26.8 -15.5Z" stroke="#fec35a" fill="none" stroke-width="2"></path></g><g transform="translate(1 131)"><path d="M0 -26L22.5 -13L22.5 13L0 26L-22.5 13L-22.5 -13Z" stroke="#fec35a" fill="none" stroke-width="2"></path></g><g transform="translate(76 414)"><path d="M0 -27L23.4 -13.5L23.4 13.5L0 27L-23.4 13.5L-23.4 -13.5Z" stroke="#fec35a" fill="none" stroke-width="2"></path></g><g transform="translate(184 555)"><path d="M0 -24L20.8 -12L20.8 12L0 24L-20.8 12L-20.8 -12Z" stroke="#fec35a" fill="none" stroke-width="2"></path></g></g></svg>