<svg id="canvas" height="auto" xmlns="http://www.w3.org/2000/svg" version="1.1" xmlns:xlink="http://www.w3.org/1999/xlink" xmlns:svgjs="http://svgjs.dev/svgjs" viewBox="0 0 1200 2000" width="auto" style="width: auto; height: auto;"><rect width="1200" height="2000" fill="#11385b"/><svg width="85.36822217940716" height="85.36822217940716" stroke-width="1" stroke="#205584" fill="none" x="584.174582159821" y="1362.3855266705766"><line x1="0" y1="21.34205554485179" x2="42.68411108970358" y2="21.34305554485179"/><line x1="21.34205554485179" y1="0" x2="21.34305554485179" y2="42.68411108970358"/></svg><circle r="16.390748237169245" cx="16.390748237169245" cy="16.390748237169245" transform="matrix(1,0,0,1,1197.8464667277826,527.7109014377884)" stroke-width="1" stroke="#205584" fill="none"/><svg width="49.83870464282994" height="49.83870464282994" stroke-width="1" stroke="#205584" fill="none" x="700.1083595358411" y="480.7574146465979"><line x1="0" y1="12.459676160707485" x2="24.91935232141497" y2="12.460676160707484"/><line x1="12.459676160707485" y1="0" x2="12.460676160707484" y2="24.91935232141497"/></svg><svg width="69.78691823913294" height="69.78691823913294" stroke-width="1" stroke="#205584" fill="none" x="884.9009094532503" y="1272.5859251192485"><line x1="0" y1="17.446729559783236" x2="34.89345911956647" y2="17.447729559783237"/><line x1="17.446729559783236" y1="0" x2="17.447729559783237" y2="34.89345911956647"/></svg><svg width="45.31643838560235" height="45.31643838560235" stroke-width="1" stroke="#205584" fill="none" x="836.0599596713743" y="173.40069616328117"><line x1="0" y1="11.329109596400588" x2="22.658219192801177" y2="11.330109596400588"/><line x1="11.329109596400588" y1="0" x2="11.330109596400588" y2="22.658219192801177"/></svg><svg width="78.86545021013634" height="78.86545021013634" stroke-width="1" stroke="#205584" fill="none" x="351.9326151416447" y="469.525524522489"><line x1="0" y1="19.716362552534086" x2="39.43272510506817" y2="19.717362552534087"/><line x1="19.716362552534086" y1="0" x2="19.717362552534087" y2="39.43272510506817"/></svg><polyline points="859.9821166992188,1246.0087022916607 887.2657958925749,1218.7250230983045 914.5494750859311,1246.0087022916607 941.8331542792873,1218.7250230983045 969.1168334726435,1246.0087022916607 996.4005126659997,1218.7250230983045 1023.6841918593559,1246.0087022916607" stroke-width="1" stroke="#205584" fill="none"/><polyline points="641.6875,455.897126844497 670.5962025294717,426.9884243150252 699.5049050589435,455.897126844497 728.4136075884153,426.9884243150252 757.3223101178871,455.897126844497 786.2310126473589,426.9884243150252 815.1397151768306,455.897126844497" stroke-width="1" stroke="#205584" fill="none"/><polyline points="1083.5487060546875,218.27816164769982 1126.5397234514107,175.28714425097655 1169.530740848134,218.27816164769982 1212.5217582448574,175.28714425097655 1255.5127756415807,218.27816164769982 1298.503793038304,175.28714425097655 1341.4948104350271,218.27816164769982" stroke-width="1" stroke="#205584" fill="none"/><circle r="14.74302204597917" cx="14.74302204597917" cy="14.74302204597917" transform="matrix(1,0,0,1,386.1815890467022,1344.6764121279439)" stroke-width="1" stroke="#205584" fill="none"/><polyline points="1075.35693359375,613.8905360927815 1113.1363963433853,576.1110733431462 1150.9158590930208,613.8905360927815 1188.695321842656,576.1110733431462 1226.4747845922914,613.8905360927815 1264.2542473419267,576.1110733431462 1302.033710091562,613.8905360927815" stroke-width="1" stroke="#205584" fill="none"/><svg width="82.56229542893868" height="82.56229542893868" stroke-width="1" stroke="#205584" fill="none" x="951.2823929294683" y="1122.738645689598"><line x1="0" y1="20.64057385723467" x2="41.28114771446934" y2="20.641573857234672"/><line x1="20.64057385723467" y1="0" x2="20.641573857234672" y2="41.28114771446934"/></svg><svg width="80.69515357879104" height="80.69515357879104" stroke-width="1" stroke="#205584" fill="none" x="615.2239225221015" y="673.8734090623112"><line x1="0" y1="20.17378839469776" x2="40.34757678939552" y2="20.17478839469776"/><line x1="20.17378839469776" y1="0" x2="20.17478839469776" y2="40.34757678939552"/></svg><svg width="99.51613659919506" height="99.51613659919506" stroke-width="1" stroke="#205584" fill="none" x="171.02610000470187" y="442.22689519615426"><line x1="0" y1="24.879034149798766" x2="49.75806829959753" y2="24.880034149798767"/><line x1="24.879034149798766" y1="0" x2="24.880034149798767" y2="49.75806829959753"/></svg><polyline points="241.0901336669922,1764.7729715284959 263.15073617614314,1742.712369019345 285.211338685294,1764.7729715284959 307.27194119444493,1742.712369019345 329.3325437035958,1764.7729715284959 351.39314621274673,1742.712369019345 373.4537487218977,1764.7729715284959" stroke-width="1" stroke="#205584" fill="none"/><svg width="56.46763330660565" height="56.46763330660565" stroke-width="1" stroke="#205584" fill="none" x="130.50774981524643" y="834.3077770897559"><line x1="0" y1="14.116908326651412" x2="28.233816653302824" y2="14.117908326651412"/><line x1="14.116908326651412" y1="0" x2="14.117908326651412" y2="28.233816653302824"/></svg><svg width="101.14013083466246" height="101.14013083466246" stroke-width="1" stroke="#205584" fill="none" x="769.6388154629093" y="1097.9964981446424"><line x1="0" y1="25.285032708665614" x2="50.57006541733123" y2="25.286032708665616"/><line x1="25.285032708665614" y1="0" x2="25.286032708665616" y2="50.57006541733123"/></svg><polyline points="374.62384033203125,959.8560520724106 397.00082799110015,937.4790644133418 419.377815650169,959.8560520724106 441.7548033092379,937.4790644133418 464.1317909683068,959.8560520724106 486.50877862737565,937.4790644133418 508.88576628644455,959.8560520724106" stroke-width="1" stroke="#205584" fill="none"/><polyline points="903.2386474609375,1214.768154021893 935.7106273016423,1182.2961741811882 968.1826071423469,1214.768154021893 1000.6545869830517,1182.2961741811882 1033.1265668237563,1214.768154021893 1065.598546664461,1182.2961741811882 1098.0705265051658,1214.768154021893" stroke-width="1" stroke="#205584" fill="none"/><svg width="75.44517495412516" height="75.44517495412516" stroke-width="1" stroke="#205584" fill="none" x="110.846868351196" y="411.3436070385849"><line x1="0" y1="18.86129373853129" x2="37.72258747706258" y2="18.862293738531292"/><line x1="18.86129373853129" y1="0" x2="18.862293738531292" y2="37.72258747706258"/></svg></svg>