<svg id="visual" viewBox="0 0 900 600" width="900" height="600" xmlns="http://www.w3.org/2000/svg" xmlns:xlink="http://www.w3.org/1999/xlink" version="1.1"><rect x="0" y="0" width="900" height="600" fill="#ececec"></rect><defs><linearGradient id="grad1_0" x1="33.3%" y1="0%" x2="100%" y2="100%"><stop offset="20%" stop-color="#fec53a" stop-opacity="1"></stop><stop offset="80%" stop-color="#fec53a" stop-opacity="1"></stop></linearGradient></defs><defs><linearGradient id="grad1_1" x1="33.3%" y1="0%" x2="100%" y2="100%"><stop offset="20%" stop-color="#fec53a" stop-opacity="1"></stop><stop offset="80%" stop-color="#feca58" stop-opacity="1"></stop></linearGradient></defs><defs><linearGradient id="grad1_2" x1="33.3%" y1="0%" x2="100%" y2="100%"><stop offset="20%" stop-color="#fed073" stop-opacity="1"></stop><stop offset="80%" stop-color="#feca58" stop-opacity="1"></stop></linearGradient></defs><defs><linearGradient id="grad1_3" x1="33.3%" y1="0%" x2="100%" y2="100%"><stop offset="20%" stop-color="#fed073" stop-opacity="1"></stop><stop offset="80%" stop-color="#fdd58c" stop-opacity="1"></stop></linearGradient></defs><defs><linearGradient id="grad1_4" x1="33.3%" y1="0%" x2="100%" y2="100%"><stop offset="20%" stop-color="#fbdba4" stop-opacity="1"></stop><stop offset="80%" stop-color="#fdd58c" stop-opacity="1"></stop></linearGradient></defs><defs><linearGradient id="grad1_5" x1="33.3%" y1="0%" x2="100%" y2="100%"><stop offset="20%" stop-color="#fbdba4" stop-opacity="1"></stop><stop offset="80%" stop-color="#f7e0bc" stop-opacity="1"></stop></linearGradient></defs><defs><linearGradient id="grad1_6" x1="33.3%" y1="0%" x2="100%" y2="100%"><stop offset="20%" stop-color="#f2e6d4" stop-opacity="1"></stop><stop offset="80%" stop-color="#f7e0bc" stop-opacity="1"></stop></linearGradient></defs><defs><linearGradient id="grad1_7" x1="33.3%" y1="0%" x2="100%" y2="100%"><stop offset="20%" stop-color="#f2e6d4" stop-opacity="1"></stop><stop offset="80%" stop-color="#ececec" stop-opacity="1"></stop></linearGradient></defs><defs><linearGradient id="grad2_0" x1="0%" y1="0%" x2="66.7%" y2="100%"><stop offset="20%" stop-color="#fec53a" stop-opacity="1"></stop><stop offset="80%" stop-color="#fec53a" stop-opacity="1"></stop></linearGradient></defs><defs><linearGradient id="grad2_1" x1="0%" y1="0%" x2="66.7%" y2="100%"><stop offset="20%" stop-color="#feca58" stop-opacity="1"></stop><stop offset="80%" stop-color="#fec53a" stop-opacity="1"></stop></linearGradient></defs><defs><linearGradient id="grad2_2" x1="0%" y1="0%" x2="66.7%" y2="100%"><stop offset="20%" stop-color="#feca58" stop-opacity="1"></stop><stop offset="80%" stop-color="#fed073" stop-opacity="1"></stop></linearGradient></defs><defs><linearGradient id="grad2_3" x1="0%" y1="0%" x2="66.7%" y2="100%"><stop offset="20%" stop-color="#fdd58c" stop-opacity="1"></stop><stop offset="80%" stop-color="#fed073" stop-opacity="1"></stop></linearGradient></defs><defs><linearGradient id="grad2_4" x1="0%" y1="0%" x2="66.7%" y2="100%"><stop offset="20%" stop-color="#fdd58c" stop-opacity="1"></stop><stop offset="80%" stop-color="#fbdba4" stop-opacity="1"></stop></linearGradient></defs><defs><linearGradient id="grad2_5" x1="0%" y1="0%" x2="66.7%" y2="100%"><stop offset="20%" stop-color="#f7e0bc" stop-opacity="1"></stop><stop offset="80%" stop-color="#fbdba4" stop-opacity="1"></stop></linearGradient></defs><defs><linearGradient id="grad2_6" x1="0%" y1="0%" x2="66.7%" y2="100%"><stop offset="20%" stop-color="#f7e0bc" stop-opacity="1"></stop><stop offset="80%" stop-color="#f2e6d4" stop-opacity="1"></stop></linearGradient></defs><defs><linearGradient id="grad2_7" x1="0%" y1="0%" x2="66.7%" y2="100%"><stop offset="20%" stop-color="#ececec" stop-opacity="1"></stop><stop offset="80%" stop-color="#f2e6d4" stop-opacity="1"></stop></linearGradient></defs><g transform="translate(900, 0)"><path d="M0 486.7C-66.6 483.8 -133.2 480.9 -186.3 449.7C-239.3 418.5 -278.8 358.9 -305.5 305.5C-332.2 252.1 -346.1 204.9 -374.2 155C-402.3 105.1 -444.5 52.6 -486.7 0L0 0Z" fill="#efe9e0"></path><path d="M0 425.9C-58.3 423.4 -116.6 420.8 -163 393.5C-209.4 366.1 -243.9 314 -267.3 267.3C-290.6 220.6 -302.8 179.3 -327.4 135.6C-352 92 -388.9 46 -425.9 0L0 0Z" fill="#f5e3c8"></path><path d="M0 365.1C-50 362.9 -99.9 360.7 -139.7 337.3C-179.5 313.8 -209.1 269.1 -229.1 229.1C-249.1 189.1 -259.6 153.7 -280.6 116.2C-301.7 78.8 -333.4 39.4 -365.1 0L0 0Z" fill="#f9deb0"></path><path d="M0 304.2C-41.6 302.4 -83.3 300.6 -116.4 281.1C-149.6 261.5 -174.2 224.3 -190.9 190.9C-207.6 157.5 -216.3 128 -233.9 96.9C-251.4 65.7 -277.8 32.8 -304.2 0L0 0Z" fill="#fcd898"></path><path d="M0 243.4C-33.3 241.9 -66.6 240.5 -93.1 224.8C-119.7 209.2 -139.4 179.4 -152.7 152.7C-166.1 126 -173 102.4 -187.1 77.5C-201.1 52.6 -222.3 26.3 -243.4 0L0 0Z" fill="#fed27f"></path><path d="M0 182.5C-25 181.4 -50 180.4 -69.9 168.6C-89.7 156.9 -104.5 134.6 -114.6 114.6C-124.6 94.5 -129.8 76.8 -140.3 58.1C-150.8 39.4 -166.7 19.7 -182.5 0L0 0Z" fill="#fecd66"></path><path d="M0 121.7C-16.7 121 -33.3 120.2 -46.6 112.4C-59.8 104.6 -69.7 89.7 -76.4 76.4C-83 63 -86.5 51.2 -93.5 38.7C-100.6 26.3 -111.1 13.1 -121.7 0L0 0Z" fill="#fec84a"></path><path d="M0 60.8C-8.3 60.5 -16.7 60.1 -23.3 56.2C-29.9 52.3 -34.8 44.9 -38.2 38.2C-41.5 31.5 -43.3 25.6 -46.8 19.4C-50.3 13.1 -55.6 6.6 -60.8 0L0 0Z" fill="#fec53a"></path></g><g transform="translate(0, 600)"><path d="M0 -486.7C51.6 -452.7 103.1 -418.7 166.1 -401C229.1 -383.2 303.4 -381.7 344.2 -344.2C384.9 -306.7 392 -233.3 410.2 -169.9C428.4 -106.6 457.6 -53.3 486.7 0L0 0Z" fill="#efe9e0"></path><path d="M0 -425.9C45.1 -396.1 90.2 -366.4 145.3 -350.8C200.4 -335.3 265.5 -334 301.2 -301.2C336.8 -268.4 343 -204.1 358.9 -148.7C374.8 -93.2 400.4 -46.6 425.9 0L0 0Z" fill="#f5e3c8"></path><path d="M0 -365.1C38.7 -339.6 77.3 -314 124.6 -300.7C171.8 -287.4 227.6 -286.2 258.1 -258.1C288.7 -230 294 -175 307.7 -127.4C321.3 -79.9 343.2 -40 365.1 0L0 0Z" fill="#f9deb0"></path><path d="M0 -304.2C32.2 -283 64.4 -261.7 103.8 -250.6C143.2 -239.5 189.6 -238.5 215.1 -215.1C240.6 -191.7 245 -145.8 256.4 -106.2C267.7 -66.6 286 -33.3 304.2 0L0 0Z" fill="#fcd898"></path><path d="M0 -243.4C25.8 -226.4 51.6 -209.4 83 -200.5C114.5 -191.6 151.7 -190.8 172.1 -172.1C192.5 -153.4 196 -116.6 205.1 -85C214.2 -53.3 228.8 -26.6 243.4 0L0 0Z" fill="#fed27f"></path><path d="M0 -182.5C19.3 -169.8 38.7 -157 62.3 -150.4C85.9 -143.7 113.8 -143.1 129.1 -129.1C144.3 -115 147 -87.5 153.8 -63.7C160.6 -40 171.6 -20 182.5 0L0 0Z" fill="#fecd66"></path><path d="M0 -121.7C12.9 -113.2 25.8 -104.7 41.5 -100.2C57.3 -95.8 75.9 -95.4 86 -86C96.2 -76.7 98 -58.3 102.6 -42.5C107.1 -26.6 114.4 -13.3 121.7 0L0 0Z" fill="#fec84a"></path><path d="M0 -60.8C6.4 -56.6 12.9 -52.3 20.8 -50.1C28.6 -47.9 37.9 -47.7 43 -43C48.1 -38.3 49 -29.2 51.3 -21.2C53.5 -13.3 57.2 -6.7 60.8 0L0 0Z" fill="#fec53a"></path></g></svg>