<svg xmlns="http://www.w3.org/2000/svg" version="1.1" xmlns:xlink="http://www.w3.org/1999/xlink" xmlns:svgjs="http://svgjs.dev/svgjs" width="1423" height="260" preserveAspectRatio="none" viewBox="0 0 1423 260"><g mask="url(&quot;#SvgjsMask1081&quot;)" fill="none"><path d="M5 260L265 0L611.5 0L351.5 260z" fill="url(&quot;#SvgjsLinearGradient1082&quot;)"></path><path d="M239.79500000000002 260L499.795 0L829.7950000000001 0L569.7950000000001 260z" fill="url(&quot;#SvgjsLinearGradient1082&quot;)"></path><path d="M471.59000000000003 260L731.59 0L1066.0900000000001 0L806.09 260z" fill="url(&quot;#SvgjsLinearGradient1082&quot;)"></path><path d="M730.385 260L990.385 0L1225.885 0L965.885 260z" fill="url(&quot;#SvgjsLinearGradient1082&quot;)"></path><path d="M1397 260L1137 0L822 0L1082 260z" fill="url(&quot;#SvgjsLinearGradient1083&quot;)"></path><path d="M1168.205 260L908.2049999999999 0L833.2049999999999 0L1093.205 260z" fill="url(&quot;#SvgjsLinearGradient1083&quot;)"></path><path d="M912.41 260L652.41 0L571.41 0L831.41 260z" fill="url(&quot;#SvgjsLinearGradient1083&quot;)"></path><path d="M685.615 260L425.615 0L359.615 0L619.615 260z" fill="url(&quot;#SvgjsLinearGradient1083&quot;)"></path><path d="M1231.8553154795327 260L1423 68.8553154795328L1423 260z" fill="url(&quot;#SvgjsLinearGradient1082&quot;)"></path><path d="M0 260L191.1446845204672 260L 0 68.8553154795328z" fill="url(&quot;#SvgjsLinearGradient1083&quot;)"></path></g><defs><mask id="SvgjsMask1081"><rect width="1423" height="260" fill="#ffffff"></rect></mask><linearGradient x1="0%" y1="100%" x2="100%" y2="0%" id="SvgjsLinearGradient1082"><stop stop-color="rgba(254, 197, 58, 1)" offset="0"></stop><stop stop-opacity="0" stop-color="rgba(254, 197, 58, 1)" offset="0.66"></stop></linearGradient><linearGradient x1="100%" y1="100%" x2="0%" y2="0%" id="SvgjsLinearGradient1083"><stop stop-color="rgba(254, 197, 58, 1)" offset="0"></stop><stop stop-opacity="0" stop-color="rgba(254, 197, 58, 1)" offset="0.66"></stop></linearGradient></defs></svg>