<svg xmlns="http://www.w3.org/2000/svg" version="1.1" xmlns:xlink="http://www.w3.org/1999/xlink" xmlns:svgjs="http://svgjs.dev/svgjs" width="1424" height="567" preserveAspectRatio="none" viewBox="0 0 1424 567"><g mask="url(&quot;#SvgjsMask1013&quot;)" fill="none"><path d="M96.42 -31.02L182.16 18.48L182.16 117.48L96.42 166.98L10.68 117.48L10.68 18.48zM267.9 265.98L353.64 315.48L353.64 414.48L267.9 463.98L182.16 414.48L182.16 315.48zM439.38 265.98L525.11 315.48L525.11 414.48L439.38 463.98L353.64 414.48L353.64 315.48zM439.38 562.98L525.11 612.48L525.11 711.48L439.38 760.98L353.64 711.48L353.64 612.48zM610.85 -31.02L696.59 18.48L696.59 117.48L610.85 166.98L525.11 117.48L525.11 18.48zM610.85 265.98L696.59 315.48L696.59 414.48L610.85 463.98L525.11 414.48L525.11 315.48zM610.85 562.98L696.59 612.48L696.59 711.48L610.85 760.98L525.11 711.48L525.11 612.48zM953.81 562.98L1039.55 612.48L1039.55 711.48L953.81 760.98L868.07 711.48L868.07 612.48zM1296.77 -31.02L1382.5 18.48L1382.5 117.48L1296.77 166.98L1211.03 117.48L1211.03 18.48zM1468.24 -31.02L1553.98 18.48L1553.98 117.48L1468.24 166.98L1382.5 117.48L1382.5 18.48z" stroke="rgba(0, 0, 0, 0)" stroke-width="2"></path><path d="M86.52 -31.02 a9.9 9.9 0 1 0 19.8 0 a9.9 9.9 0 1 0 -19.8 0zM172.26 18.48 a9.9 9.9 0 1 0 19.8 0 a9.9 9.9 0 1 0 -19.8 0zM172.26 117.48 a9.9 9.9 0 1 0 19.8 0 a9.9 9.9 0 1 0 -19.8 0zM86.52 166.98 a9.9 9.9 0 1 0 19.8 0 a9.9 9.9 0 1 0 -19.8 0zM0.78 117.48 a9.9 9.9 0 1 0 19.8 0 a9.9 9.9 0 1 0 -19.8 0zM0.78 18.48 a9.9 9.9 0 1 0 19.8 0 a9.9 9.9 0 1 0 -19.8 0zM258 265.98 a9.9 9.9 0 1 0 19.8 0 a9.9 9.9 0 1 0 -19.8 0zM343.74 315.48 a9.9 9.9 0 1 0 19.8 0 a9.9 9.9 0 1 0 -19.8 0zM343.74 414.48 a9.9 9.9 0 1 0 19.8 0 a9.9 9.9 0 1 0 -19.8 0zM258 463.98 a9.9 9.9 0 1 0 19.8 0 a9.9 9.9 0 1 0 -19.8 0zM172.26 414.48 a9.9 9.9 0 1 0 19.8 0 a9.9 9.9 0 1 0 -19.8 0zM172.26 315.48 a9.9 9.9 0 1 0 19.8 0 a9.9 9.9 0 1 0 -19.8 0zM429.48 265.98 a9.9 9.9 0 1 0 19.8 0 a9.9 9.9 0 1 0 -19.8 0zM515.21 315.48 a9.9 9.9 0 1 0 19.8 0 a9.9 9.9 0 1 0 -19.8 0zM515.21 414.48 a9.9 9.9 0 1 0 19.8 0 a9.9 9.9 0 1 0 -19.8 0zM429.48 463.98 a9.9 9.9 0 1 0 19.8 0 a9.9 9.9 0 1 0 -19.8 0zM429.48 562.98 a9.9 9.9 0 1 0 19.8 0 a9.9 9.9 0 1 0 -19.8 0zM515.21 612.48 a9.9 9.9 0 1 0 19.8 0 a9.9 9.9 0 1 0 -19.8 0zM515.21 711.48 a9.9 9.9 0 1 0 19.8 0 a9.9 9.9 0 1 0 -19.8 0zM429.48 760.98 a9.9 9.9 0 1 0 19.8 0 a9.9 9.9 0 1 0 -19.8 0zM343.74 711.48 a9.9 9.9 0 1 0 19.8 0 a9.9 9.9 0 1 0 -19.8 0zM343.74 612.48 a9.9 9.9 0 1 0 19.8 0 a9.9 9.9 0 1 0 -19.8 0zM600.95 -31.02 a9.9 9.9 0 1 0 19.8 0 a9.9 9.9 0 1 0 -19.8 0zM686.69 18.48 a9.9 9.9 0 1 0 19.8 0 a9.9 9.9 0 1 0 -19.8 0zM686.69 117.48 a9.9 9.9 0 1 0 19.8 0 a9.9 9.9 0 1 0 -19.8 0zM600.95 166.98 a9.9 9.9 0 1 0 19.8 0 a9.9 9.9 0 1 0 -19.8 0zM515.21 117.48 a9.9 9.9 0 1 0 19.8 0 a9.9 9.9 0 1 0 -19.8 0zM515.21 18.48 a9.9 9.9 0 1 0 19.8 0 a9.9 9.9 0 1 0 -19.8 0zM600.95 265.98 a9.9 9.9 0 1 0 19.8 0 a9.9 9.9 0 1 0 -19.8 0zM686.69 315.48 a9.9 9.9 0 1 0 19.8 0 a9.9 9.9 0 1 0 -19.8 0zM686.69 414.48 a9.9 9.9 0 1 0 19.8 0 a9.9 9.9 0 1 0 -19.8 0zM600.95 463.98 a9.9 9.9 0 1 0 19.8 0 a9.9 9.9 0 1 0 -19.8 0zM600.95 562.98 a9.9 9.9 0 1 0 19.8 0 a9.9 9.9 0 1 0 -19.8 0zM686.69 612.48 a9.9 9.9 0 1 0 19.8 0 a9.9 9.9 0 1 0 -19.8 0zM686.69 711.48 a9.9 9.9 0 1 0 19.8 0 a9.9 9.9 0 1 0 -19.8 0zM600.95 760.98 a9.9 9.9 0 1 0 19.8 0 a9.9 9.9 0 1 0 -19.8 0zM943.91 562.98 a9.9 9.9 0 1 0 19.8 0 a9.9 9.9 0 1 0 -19.8 0zM1029.65 612.48 a9.9 9.9 0 1 0 19.8 0 a9.9 9.9 0 1 0 -19.8 0zM1029.65 711.48 a9.9 9.9 0 1 0 19.8 0 a9.9 9.9 0 1 0 -19.8 0zM943.91 760.98 a9.9 9.9 0 1 0 19.8 0 a9.9 9.9 0 1 0 -19.8 0zM858.17 711.48 a9.9 9.9 0 1 0 19.8 0 a9.9 9.9 0 1 0 -19.8 0zM858.17 612.48 a9.9 9.9 0 1 0 19.8 0 a9.9 9.9 0 1 0 -19.8 0zM1286.87 -31.02 a9.9 9.9 0 1 0 19.8 0 a9.9 9.9 0 1 0 -19.8 0zM1372.6 18.48 a9.9 9.9 0 1 0 19.8 0 a9.9 9.9 0 1 0 -19.8 0zM1372.6 117.48 a9.9 9.9 0 1 0 19.8 0 a9.9 9.9 0 1 0 -19.8 0zM1286.87 166.98 a9.9 9.9 0 1 0 19.8 0 a9.9 9.9 0 1 0 -19.8 0zM1201.13 117.48 a9.9 9.9 0 1 0 19.8 0 a9.9 9.9 0 1 0 -19.8 0zM1201.13 18.48 a9.9 9.9 0 1 0 19.8 0 a9.9 9.9 0 1 0 -19.8 0zM1458.34 -31.02 a9.9 9.9 0 1 0 19.8 0 a9.9 9.9 0 1 0 -19.8 0zM1544.08 18.48 a9.9 9.9 0 1 0 19.8 0 a9.9 9.9 0 1 0 -19.8 0zM1544.08 117.48 a9.9 9.9 0 1 0 19.8 0 a9.9 9.9 0 1 0 -19.8 0zM1458.34 166.98 a9.9 9.9 0 1 0 19.8 0 a9.9 9.9 0 1 0 -19.8 0z" fill="rgba(0, 0, 0, 0)"></path><path d="M53.18 43.42L82.62 60.42L82.62 94.42L53.18 111.42L23.73 94.42L23.73 60.42zM53.18 145.42L82.62 162.42L82.62 196.42L53.18 213.42L23.73 196.42L23.73 162.42zM53.18 247.42L82.62 264.42L82.62 298.42L53.18 315.42L23.73 298.42L23.73 264.42zM23.73 298.42L53.18 315.42L53.18 349.42L23.73 366.42L-5.72 349.42L-5.72 315.42zM53.18 553.42L82.62 570.42L82.62 604.42L53.18 621.42L23.73 604.42L23.73 570.42zM112.07 145.42L141.51 162.42L141.51 196.42L112.07 213.42L82.62 196.42L82.62 162.42zM82.62 196.42L112.07 213.42L112.07 247.42L82.62 264.42L53.18 247.42L53.18 213.42zM112.07 451.42L141.51 468.42L141.51 502.42L112.07 519.42L82.62 502.42L82.62 468.42zM141.51 196.42L170.96 213.42L170.96 247.42L141.51 264.42L112.07 247.42L112.07 213.42zM141.51 298.42L170.96 315.42L170.96 349.42L141.51 366.42L112.07 349.42L112.07 315.42zM200.4 -7.58L229.85 9.42L229.85 43.42L200.4 60.42L170.96 43.42L170.96 9.42zM229.85 145.42L259.3 162.42L259.3 196.42L229.85 213.42L200.4 196.42L200.4 162.42zM200.4 196.42L229.85 213.42L229.85 247.42L200.4 264.42L170.96 247.42L170.96 213.42zM229.85 247.42L259.3 264.42L259.3 298.42L229.85 315.42L200.4 298.42L200.4 264.42zM229.85 349.42L259.3 366.42L259.3 400.42L229.85 417.42L200.4 400.42L200.4 366.42zM200.4 400.42L229.85 417.42L229.85 451.42L200.4 468.42L170.96 451.42L170.96 417.42zM229.85 451.42L259.3 468.42L259.3 502.42L229.85 519.42L200.4 502.42L200.4 468.42zM200.4 502.42L229.85 519.42L229.85 553.42L200.4 570.42L170.96 553.42L170.96 519.42zM229.85 553.42L259.3 570.42L259.3 604.42L229.85 621.42L200.4 604.42L200.4 570.42zM259.3 -7.58L288.74 9.42L288.74 43.42L259.3 60.42L229.85 43.42L229.85 9.42zM259.3 502.42L288.74 519.42L288.74 553.42L259.3 570.42L229.85 553.42L229.85 519.42zM347.63 247.42L377.08 264.42L377.08 298.42L347.63 315.42L318.19 298.42L318.19 264.42zM318.19 298.42L347.63 315.42L347.63 349.42L318.19 366.42L288.74 349.42L288.74 315.42zM347.63 349.42L377.08 366.42L377.08 400.42L347.63 417.42L318.19 400.42L318.19 366.42zM347.63 451.42L377.08 468.42L377.08 502.42L347.63 519.42L318.19 502.42L318.19 468.42zM347.63 553.42L377.08 570.42L377.08 604.42L347.63 621.42L318.19 604.42L318.19 570.42zM406.52 43.42L435.97 60.42L435.97 94.42L406.52 111.42L377.08 94.42L377.08 60.42zM377.08 94.42L406.52 111.42L406.52 145.42L377.08 162.42L347.63 145.42L347.63 111.42zM377.08 196.42L406.52 213.42L406.52 247.42L377.08 264.42L347.63 247.42L347.63 213.42zM406.52 247.42L435.97 264.42L435.97 298.42L406.52 315.42L377.08 298.42L377.08 264.42zM377.08 298.42L406.52 315.42L406.52 349.42L377.08 366.42L347.63 349.42L347.63 315.42zM406.52 349.42L435.97 366.42L435.97 400.42L406.52 417.42L377.08 400.42L377.08 366.42zM406.52 451.42L435.97 468.42L435.97 502.42L406.52 519.42L377.08 502.42L377.08 468.42zM435.97 94.42L465.42 111.42L465.42 145.42L435.97 162.42L406.52 145.42L406.52 111.42zM435.97 196.42L465.42 213.42L465.42 247.42L435.97 264.42L406.52 247.42L406.52 213.42zM465.42 247.42L494.86 264.42L494.86 298.42L465.42 315.42L435.97 298.42L435.97 264.42zM435.97 298.42L465.42 315.42L465.42 349.42L435.97 366.42L406.52 349.42L406.52 315.42zM435.97 400.42L465.42 417.42L465.42 451.42L435.97 468.42L406.52 451.42L406.52 417.42zM494.86 -7.58L524.31 9.42L524.31 43.42L494.86 60.42L465.42 43.42L465.42 9.42zM524.31 43.42L553.75 60.42L553.75 94.42L524.31 111.42L494.86 94.42L494.86 60.42zM524.31 145.42L553.75 162.42L553.75 196.42L524.31 213.42L494.86 196.42L494.86 162.42zM494.86 196.42L524.31 213.42L524.31 247.42L494.86 264.42L465.42 247.42L465.42 213.42zM524.31 247.42L553.75 264.42L553.75 298.42L524.31 315.42L494.86 298.42L494.86 264.42zM494.86 298.42L524.31 315.42L524.31 349.42L494.86 366.42L465.42 349.42L465.42 315.42zM524.31 553.42L553.75 570.42L553.75 604.42L524.31 621.42L494.86 604.42L494.86 570.42zM583.2 349.42L612.64 366.42L612.64 400.42L583.2 417.42L553.75 400.42L553.75 366.42zM553.75 400.42L583.2 417.42L583.2 451.42L553.75 468.42L524.31 451.42L524.31 417.42zM583.2 451.42L612.64 468.42L612.64 502.42L583.2 519.42L553.75 502.42L553.75 468.42zM553.75 502.42L583.2 519.42L583.2 553.42L553.75 570.42L524.31 553.42L524.31 519.42zM612.64 94.42L642.09 111.42L642.09 145.42L612.64 162.42L583.2 145.42L583.2 111.42zM642.09 247.42L671.54 264.42L671.54 298.42L642.09 315.42L612.64 298.42L612.64 264.42zM612.64 298.42L642.09 315.42L642.09 349.42L612.64 366.42L583.2 349.42L583.2 315.42zM612.64 502.42L642.09 519.42L642.09 553.42L612.64 570.42L583.2 553.42L583.2 519.42zM642.09 553.42L671.54 570.42L671.54 604.42L642.09 621.42L612.64 604.42L612.64 570.42zM671.54 -7.58L700.98 9.42L700.98 43.42L671.54 60.42L642.09 43.42L642.09 9.42zM700.98 43.42L730.43 60.42L730.43 94.42L700.98 111.42L671.54 94.42L671.54 60.42zM700.98 247.42L730.43 264.42L730.43 298.42L700.98 315.42L671.54 298.42L671.54 264.42zM671.54 298.42L700.98 315.42L700.98 349.42L671.54 366.42L642.09 349.42L642.09 315.42zM759.87 43.42L789.32 60.42L789.32 94.42L759.87 111.42L730.43 94.42L730.43 60.42zM730.43 94.42L759.87 111.42L759.87 145.42L730.43 162.42L700.98 145.42L700.98 111.42zM759.87 451.42L789.32 468.42L789.32 502.42L759.87 519.42L730.43 502.42L730.43 468.42zM730.43 502.42L759.87 519.42L759.87 553.42L730.43 570.42L700.98 553.42L700.98 519.42zM789.32 -7.58L818.76 9.42L818.76 43.42L789.32 60.42L759.87 43.42L759.87 9.42zM789.32 400.42L818.76 417.42L818.76 451.42L789.32 468.42L759.87 451.42L759.87 417.42zM818.76 553.42L848.21 570.42L848.21 604.42L818.76 621.42L789.32 604.42L789.32 570.42zM848.21 94.42L877.66 111.42L877.66 145.42L848.21 162.42L818.76 145.42L818.76 111.42zM877.66 145.42L907.1 162.42L907.1 196.42L877.66 213.42L848.21 196.42L848.21 162.42zM877.66 247.42L907.1 264.42L907.1 298.42L877.66 315.42L848.21 298.42L848.21 264.42zM848.21 298.42L877.66 315.42L877.66 349.42L848.21 366.42L818.76 349.42L818.76 315.42zM848.21 502.42L877.66 519.42L877.66 553.42L848.21 570.42L818.76 553.42L818.76 519.42zM907.1 -7.58L936.55 9.42L936.55 43.42L907.1 60.42L877.66 43.42L877.66 9.42zM907.1 94.42L936.55 111.42L936.55 145.42L907.1 162.42L877.66 145.42L877.66 111.42zM907.1 400.42L936.55 417.42L936.55 451.42L907.1 468.42L877.66 451.42L877.66 417.42zM907.1 502.42L936.55 519.42L936.55 553.42L907.1 570.42L877.66 553.42L877.66 519.42zM965.99 94.42L995.44 111.42L995.44 145.42L965.99 162.42L936.55 145.42L936.55 111.42zM995.44 247.42L1024.88 264.42L1024.88 298.42L995.44 315.42L965.99 298.42L965.99 264.42zM995.44 451.42L1024.88 468.42L1024.88 502.42L995.44 519.42L965.99 502.42L965.99 468.42zM965.99 502.42L995.44 519.42L995.44 553.42L965.99 570.42L936.55 553.42L936.55 519.42zM1024.88 400.42L1054.33 417.42L1054.33 451.42L1024.88 468.42L995.44 451.42L995.44 417.42zM1083.78 196.42L1113.22 213.42L1113.22 247.42L1083.78 264.42L1054.33 247.42L1054.33 213.42zM1113.22 247.42L1142.67 264.42L1142.67 298.42L1113.22 315.42L1083.78 298.42L1083.78 264.42zM1083.78 298.42L1113.22 315.42L1113.22 349.42L1083.78 366.42L1054.33 349.42L1054.33 315.42zM1083.78 400.42L1113.22 417.42L1113.22 451.42L1083.78 468.42L1054.33 451.42L1054.33 417.42zM1113.22 451.42L1142.67 468.42L1142.67 502.42L1113.22 519.42L1083.78 502.42L1083.78 468.42zM1172.11 43.42L1201.56 60.42L1201.56 94.42L1172.11 111.42L1142.67 94.42L1142.67 60.42zM1142.67 196.42L1172.11 213.42L1172.11 247.42L1142.67 264.42L1113.22 247.42L1113.22 213.42zM1142.67 298.42L1172.11 315.42L1172.11 349.42L1142.67 366.42L1113.22 349.42L1113.22 315.42zM1172.11 553.42L1201.56 570.42L1201.56 604.42L1172.11 621.42L1142.67 604.42L1142.67 570.42zM1201.56 -7.58L1231 9.42L1231 43.42L1201.56 60.42L1172.11 43.42L1172.11 9.42zM1201.56 502.42L1231 519.42L1231 553.42L1201.56 570.42L1172.11 553.42L1172.11 519.42zM1231 553.42L1260.45 570.42L1260.45 604.42L1231 621.42L1201.56 604.42L1201.56 570.42zM1260.45 -7.58L1289.9 9.42L1289.9 43.42L1260.45 60.42L1231 43.42L1231 9.42zM1289.9 43.42L1319.34 60.42L1319.34 94.42L1289.9 111.42L1260.45 94.42L1260.45 60.42zM1260.45 298.42L1289.9 315.42L1289.9 349.42L1260.45 366.42L1231 349.42L1231 315.42zM1289.9 349.42L1319.34 366.42L1319.34 400.42L1289.9 417.42L1260.45 400.42L1260.45 366.42zM1260.45 400.42L1289.9 417.42L1289.9 451.42L1260.45 468.42L1231 451.42L1231 417.42zM1319.34 94.42L1348.79 111.42L1348.79 145.42L1319.34 162.42L1289.9 145.42L1289.9 111.42zM1348.79 145.42L1378.23 162.42L1378.23 196.42L1348.79 213.42L1319.34 196.42L1319.34 162.42zM1319.34 196.42L1348.79 213.42L1348.79 247.42L1319.34 264.42L1289.9 247.42L1289.9 213.42zM1319.34 400.42L1348.79 417.42L1348.79 451.42L1319.34 468.42L1289.9 451.42L1289.9 417.42zM1407.68 145.42L1437.12 162.42L1437.12 196.42L1407.68 213.42L1378.23 196.42L1378.23 162.42zM1407.68 247.42L1437.12 264.42L1437.12 298.42L1407.68 315.42L1378.23 298.42L1378.23 264.42zM1437.12 298.42L1466.57 315.42L1466.57 349.42L1437.12 366.42L1407.68 349.42L1407.68 315.42zM1437.12 400.42L1466.57 417.42L1466.57 451.42L1437.12 468.42L1407.68 451.42L1407.68 417.42zM1437.12 502.42L1466.57 519.42L1466.57 553.42L1437.12 570.42L1407.68 553.42L1407.68 519.42z" stroke="rgba(254, 195, 90, 1)" stroke-width="2"></path></g><defs><mask id="SvgjsMask1013"><rect width="1424" height="567" fill="#ffffff"></rect></mask></defs></svg>