<svg xmlns="http://www.w3.org/2000/svg" version="1.1" xmlns:xlink="http://www.w3.org/1999/xlink" xmlns:svgjs="http://svgjs.dev/svgjs" width="1440" height="560" preserveAspectRatio="none" viewBox="0 0 1440 560"><g mask="url(&quot;#SvgjsMask1150&quot;)" fill="none"><path d="M181.15 -91.7L266.89 -42.2L266.89 56.8L181.15 106.3L95.41 56.8L95.41 -42.2zM438.36 353.8L524.1 403.3L524.1 502.3L438.36 551.8L352.63 502.3L352.63 403.3zM609.84 56.8L695.58 106.3L695.58 205.3L609.84 254.8L524.1 205.3L524.1 106.3zM524.1 205.3L609.84 254.8L609.84 353.8L524.1 403.3L438.36 353.8L438.36 254.8zM695.58 205.3L781.32 254.8L781.32 353.8L695.58 403.3L609.84 353.8L609.84 254.8zM867.06 -91.7L952.8 -42.2L952.8 56.8L867.06 106.3L781.32 56.8L781.32 -42.2zM952.8 56.8L1038.54 106.3L1038.54 205.3L952.8 254.8L867.06 205.3L867.06 106.3zM1124.28 353.8L1210.02 403.3L1210.02 502.3L1124.28 551.8L1038.54 502.3L1038.54 403.3zM1467.23 56.8L1552.97 106.3L1552.97 205.3L1467.23 254.8L1381.49 205.3L1381.49 106.3zM1381.49 205.3L1467.23 254.8L1467.23 353.8L1381.49 403.3L1295.75 353.8L1295.75 254.8zM1381.49 502.3L1467.23 551.8L1467.23 650.8L1381.49 700.3L1295.75 650.8L1295.75 551.8z" stroke="rgba(240, 41, 34, 1)" stroke-width="2"></path><path d="M171.25 -91.7 a9.9 9.9 0 1 0 19.8 0 a9.9 9.9 0 1 0 -19.8 0zM256.99 -42.2 a9.9 9.9 0 1 0 19.8 0 a9.9 9.9 0 1 0 -19.8 0zM256.99 56.8 a9.9 9.9 0 1 0 19.8 0 a9.9 9.9 0 1 0 -19.8 0zM171.25 106.3 a9.9 9.9 0 1 0 19.8 0 a9.9 9.9 0 1 0 -19.8 0zM85.51 56.8 a9.9 9.9 0 1 0 19.8 0 a9.9 9.9 0 1 0 -19.8 0zM85.51 -42.2 a9.9 9.9 0 1 0 19.8 0 a9.9 9.9 0 1 0 -19.8 0zM428.46 353.8 a9.9 9.9 0 1 0 19.8 0 a9.9 9.9 0 1 0 -19.8 0zM514.2 403.3 a9.9 9.9 0 1 0 19.8 0 a9.9 9.9 0 1 0 -19.8 0zM514.2 502.3 a9.9 9.9 0 1 0 19.8 0 a9.9 9.9 0 1 0 -19.8 0zM428.46 551.8 a9.9 9.9 0 1 0 19.8 0 a9.9 9.9 0 1 0 -19.8 0zM342.73 502.3 a9.9 9.9 0 1 0 19.8 0 a9.9 9.9 0 1 0 -19.8 0zM342.73 403.3 a9.9 9.9 0 1 0 19.8 0 a9.9 9.9 0 1 0 -19.8 0zM599.94 56.8 a9.9 9.9 0 1 0 19.8 0 a9.9 9.9 0 1 0 -19.8 0zM685.68 106.3 a9.9 9.9 0 1 0 19.8 0 a9.9 9.9 0 1 0 -19.8 0zM685.68 205.3 a9.9 9.9 0 1 0 19.8 0 a9.9 9.9 0 1 0 -19.8 0zM599.94 254.8 a9.9 9.9 0 1 0 19.8 0 a9.9 9.9 0 1 0 -19.8 0zM514.2 205.3 a9.9 9.9 0 1 0 19.8 0 a9.9 9.9 0 1 0 -19.8 0zM514.2 106.3 a9.9 9.9 0 1 0 19.8 0 a9.9 9.9 0 1 0 -19.8 0zM599.94 353.8 a9.9 9.9 0 1 0 19.8 0 a9.9 9.9 0 1 0 -19.8 0zM428.46 254.8 a9.9 9.9 0 1 0 19.8 0 a9.9 9.9 0 1 0 -19.8 0zM771.42 254.8 a9.9 9.9 0 1 0 19.8 0 a9.9 9.9 0 1 0 -19.8 0zM771.42 353.8 a9.9 9.9 0 1 0 19.8 0 a9.9 9.9 0 1 0 -19.8 0zM685.68 403.3 a9.9 9.9 0 1 0 19.8 0 a9.9 9.9 0 1 0 -19.8 0zM857.16 -91.7 a9.9 9.9 0 1 0 19.8 0 a9.9 9.9 0 1 0 -19.8 0zM942.9 -42.2 a9.9 9.9 0 1 0 19.8 0 a9.9 9.9 0 1 0 -19.8 0zM942.9 56.8 a9.9 9.9 0 1 0 19.8 0 a9.9 9.9 0 1 0 -19.8 0zM857.16 106.3 a9.9 9.9 0 1 0 19.8 0 a9.9 9.9 0 1 0 -19.8 0zM771.42 56.8 a9.9 9.9 0 1 0 19.8 0 a9.9 9.9 0 1 0 -19.8 0zM771.42 -42.2 a9.9 9.9 0 1 0 19.8 0 a9.9 9.9 0 1 0 -19.8 0zM1028.64 106.3 a9.9 9.9 0 1 0 19.8 0 a9.9 9.9 0 1 0 -19.8 0zM1028.64 205.3 a9.9 9.9 0 1 0 19.8 0 a9.9 9.9 0 1 0 -19.8 0zM942.9 254.8 a9.9 9.9 0 1 0 19.8 0 a9.9 9.9 0 1 0 -19.8 0zM857.16 205.3 a9.9 9.9 0 1 0 19.8 0 a9.9 9.9 0 1 0 -19.8 0zM1114.38 353.8 a9.9 9.9 0 1 0 19.8 0 a9.9 9.9 0 1 0 -19.8 0zM1200.12 403.3 a9.9 9.9 0 1 0 19.8 0 a9.9 9.9 0 1 0 -19.8 0zM1200.12 502.3 a9.9 9.9 0 1 0 19.8 0 a9.9 9.9 0 1 0 -19.8 0zM1114.38 551.8 a9.9 9.9 0 1 0 19.8 0 a9.9 9.9 0 1 0 -19.8 0zM1028.64 502.3 a9.9 9.9 0 1 0 19.8 0 a9.9 9.9 0 1 0 -19.8 0zM1028.64 403.3 a9.9 9.9 0 1 0 19.8 0 a9.9 9.9 0 1 0 -19.8 0zM1457.33 56.8 a9.9 9.9 0 1 0 19.8 0 a9.9 9.9 0 1 0 -19.8 0zM1543.07 106.3 a9.9 9.9 0 1 0 19.8 0 a9.9 9.9 0 1 0 -19.8 0zM1543.07 205.3 a9.9 9.9 0 1 0 19.8 0 a9.9 9.9 0 1 0 -19.8 0zM1457.33 254.8 a9.9 9.9 0 1 0 19.8 0 a9.9 9.9 0 1 0 -19.8 0zM1371.59 205.3 a9.9 9.9 0 1 0 19.8 0 a9.9 9.9 0 1 0 -19.8 0zM1371.59 106.3 a9.9 9.9 0 1 0 19.8 0 a9.9 9.9 0 1 0 -19.8 0zM1457.33 353.8 a9.9 9.9 0 1 0 19.8 0 a9.9 9.9 0 1 0 -19.8 0zM1371.59 403.3 a9.9 9.9 0 1 0 19.8 0 a9.9 9.9 0 1 0 -19.8 0zM1285.85 353.8 a9.9 9.9 0 1 0 19.8 0 a9.9 9.9 0 1 0 -19.8 0zM1285.85 254.8 a9.9 9.9 0 1 0 19.8 0 a9.9 9.9 0 1 0 -19.8 0zM1371.59 502.3 a9.9 9.9 0 1 0 19.8 0 a9.9 9.9 0 1 0 -19.8 0zM1457.33 551.8 a9.9 9.9 0 1 0 19.8 0 a9.9 9.9 0 1 0 -19.8 0zM1457.33 650.8 a9.9 9.9 0 1 0 19.8 0 a9.9 9.9 0 1 0 -19.8 0zM1371.59 700.3 a9.9 9.9 0 1 0 19.8 0 a9.9 9.9 0 1 0 -19.8 0zM1285.85 650.8 a9.9 9.9 0 1 0 19.8 0 a9.9 9.9 0 1 0 -19.8 0zM1285.85 551.8 a9.9 9.9 0 1 0 19.8 0 a9.9 9.9 0 1 0 -19.8 0z" fill="rgba(240, 41, 34, 1)"></path><path d="M169.99 62.85L250.54 109.35L250.54 202.35L169.99 248.85L89.45 202.35L89.45 109.35zM89.45 202.35L169.99 248.85L169.99 341.85L89.45 388.35L8.91 341.85L8.91 248.85zM89.45 481.35L169.99 527.85L169.99 620.85L89.45 667.35L8.91 620.85L8.91 527.85zM250.54 202.35L331.08 248.85L331.08 341.85L250.54 388.35L169.99 341.85L169.99 248.85zM411.62 481.35L492.16 527.85L492.16 620.85L411.62 667.35L331.08 620.85L331.08 527.85zM572.71 -76.65L653.25 -30.15L653.25 62.85L572.71 109.35L492.16 62.85L492.16 -30.15zM572.71 202.35L653.25 248.85L653.25 341.85L572.71 388.35L492.16 341.85L492.16 248.85zM733.79 202.35L814.33 248.85L814.33 341.85L733.79 388.35L653.25 341.85L653.25 248.85zM733.79 481.35L814.33 527.85L814.33 620.85L733.79 667.35L653.25 620.85L653.25 527.85zM1136.5 62.85L1217.05 109.35L1217.05 202.35L1136.5 248.85L1055.96 202.35L1055.96 109.35zM1297.59 62.85L1378.13 109.35L1378.13 202.35L1297.59 248.85L1217.05 202.35L1217.05 109.35zM1217.05 202.35L1297.59 248.85L1297.59 341.85L1217.05 388.35L1136.5 341.85L1136.5 248.85zM1217.05 481.35L1297.59 527.85L1297.59 620.85L1217.05 667.35L1136.5 620.85L1136.5 527.85zM1378.13 202.35L1458.68 248.85L1458.68 341.85L1378.13 388.35L1297.59 341.85L1297.59 248.85zM1458.68 341.85L1539.22 388.35L1539.22 481.35L1458.68 527.85L1378.13 481.35L1378.13 388.35z" stroke="url(&quot;#SvgjsLinearGradient1151&quot;)" stroke-width="2"></path></g><defs><mask id="SvgjsMask1150"><rect width="1440" height="560" fill="#ffffff"></rect></mask><linearGradient x1="220.03199999999998" y1="-220.02399999999997" x2="1219.9679999999998" y2="780.024" gradientUnits="userSpaceOnUse" id="SvgjsLinearGradient1151"><stop stop-color="#0e2a47" offset="0"></stop><stop stop-color="rgba(254, 195, 90, 1)" offset="1"></stop></linearGradient></defs></svg>