<svg xmlns="http://www.w3.org/2000/svg" viewBox="0 0 363.89 344.27"><defs><style>.cls-1{fill:#f01c21;}.cls-2{fill:#212222;}</style></defs><g id="Capa_2" data-name="Capa 2"><g id="Capa_1-2" data-name="Capa 1"><path class="cls-1" d="M150.62,105.72S144.1,13.6,232,27.8L110.13,24.54Z" transform="translate(0)"/><path class="cls-2" d="M243,135.14c-1.88.15-3.07.13-3.07.13h-2.12c1.43,0,2.85-.06,4.28-.1Z" transform="translate(0)"/><path class="cls-2" d="M204.08,52.72c-5,.05-8.05-3.08-8-8,.07-4.59,3-7.23,7.83-7.61,4.89.4,7.9,3,7.81,8.1C211.65,49.88,208.69,52.68,204.08,52.72Z" transform="translate(0)"/><path class="cls-2" d="M353.24,328.12c-12.26.08-24.55-.13-36.82.11-3.89.07-6.34-1-8.57-4.39q-16.22-24.81-33-49.23c-2.49-3.6-1.91-5.68.62-8.9,21.56-27.44,25.92-57.77,14.4-90.49-2.84-8.08-4.47-18.31-8.58-27.14-4.35-9.35-9.32-14.91-17.59-16-14.5-4.13-39.67-37.33-39.6-49.48.06-13.44,9.4-23.06,24.83-23.15,16.53-.1,33.06-.13,49.58,0,5.74.06,10.48-1.34,10.49-7.77s-4.66-8.06-10.39-8c-10.76.15-21.54-.08-32.3.12-3.49.06-5.06-.89-6.38-4.47C253.8,22.73,241,13.78,223.22,13.71q-50.73-.26-101.44,0c-7.67,0-13.64-2.38-17.67-9-2.81-4.65-6.85-6-11.45-3.21-4.35,2.67-4.59,6.7-2.35,11.13C102.16,36,114.66,59.11,125.7,82.93c20,43,20.47,51.78,20.37,56-10.91,4.09-19.93,11.68-27.13,22.6Q61.36,248.93,3.87,336.42c-1.53,2.32-4,4.36-3.86,7.83,17.59,0,34.86,0,52.14,0,26,0,46.41-10.68,60.63-32.54,2.5-3.85,5.19-5.09,9.7-5.06,25.78.15,51.58,0,77.38-.12,2,0,3.88-.23,5.2,1.88,4,6.27,8.08,12.44,12.81,19.71-15.38,0-29.56.07-43.73,0-6-.05-11.7.79-11.69,8.22,0,7.07,5.49,7.77,11.25,7.76q36.9,0,73.82,0l-11.79-17.9c-.12-.17-.24-.33-.36-.53l-.79-1.25-.3-.45c-4.46-6.94-9.1-13.81-13.82-21,13.48-4.38,25.66-10,36.16-18.67,3.44-2.85,4.82-1.45,6.76,1.48,9,13.72,18.21,27.34,28.27,42.39h-.08l10.48,15.92,51.21,0c5.47,0,10.45-.74,10.63-7.56C364.08,329.38,359.14,328.08,353.24,328.12ZM137.11,70.75c-5-9.66-9.6-19.63-14.59-29.66a8.28,8.28,0,0,1,7.41-12h31.68c19.75,0,39.51-.09,59.26.05,12.44.09,19.64,5.74,23.13,15.32-22.62,2-65.87,31.08-.67,90.61l-.33,0-.91,0c-1.43,0-2.85.09-4.28.1-8.08.17-16.21.06-24.6,0H173.1c-.84.08-1.7.11-2.59.12s-2,0-3,0c-1.52,0-3,0-4.46.11-1.11-3.22-3.54-10.32-6.18-18A342.77,342.77,0,0,0,137.11,70.75Zm52.14,220.37H126.67c6.33-9.62,11.16-18.87,18.25-26.46,7.85-8.4,21.64-8.85,29.71-.74,7.51,7.55,12.15,17.25,18.74,26.95C191.07,291,190.16,291.12,189.25,291.12Zm58.53-19.9A101.93,101.93,0,0,1,216,287.65c-4,1.23-5.77.09-7.75-3.19-4.14-6.84-9-13.24-13.08-20.13-8-13.44-19-21.67-35.86-22,17.6-32.34,52-34.06,72-4.43,5.86,8.72,11.57,17.54,17.63,26.13C251.11,267.17,250.89,268.86,247.78,271.22Zm11.06-20.42c-5-8.66-10.91-16.78-16.6-25-22.8-33.06-69.59-32.94-91.89.36q-25,37.41-49.54,75.2c-11.89,18.39-28.38,27.57-50.29,27.12-7-.13-14,0-22.38,0C51.06,293.6,73,260.2,95,226.8c12.39-18.8,24.84-37.55,37.17-56.41,8.32-12.73,19.81-19.27,35.19-19.11,17.79.19,35.57,0,53.36,0,8.45,0,16.94.35,25.36-.67a23.5,23.5,0,0,1,25.69,17.9c1.58,6.64,3.59,13.09,5.43,19.6,6.23,22,2.8,43.1-10.11,62.39C264.18,254.9,262.46,257.11,258.84,250.8Z" transform="translate(0)"/></g></g></svg>