<svg xmlns="http://www.w3.org/2000/svg" viewBox="0 0 750 167.12"><defs><style>.cls-1{fill:#f0292c;}.cls-2{fill:#212222;}.cls-3{fill:#11385b;}</style></defs><g id="Capa_2" data-name="Capa 2"><g id="Capa_1-2" data-name="Capa 1"><path class="cls-1" d="M73.15,48.36S70,3.64,112.66,10.54L53.49,9Z"/><path class="cls-2" d="M118,65.6c-.91.07-1.49.07-1.49.07h-1c.69,0,1.39,0,2.08-.06Z"/><path class="cls-2" d="M99.07,25.59a3.56,3.56,0,0,1-3.88-3.9c0-2.22,1.45-3.5,3.81-3.69,2.37.19,3.83,1.46,3.78,3.93A3.46,3.46,0,0,1,99.07,25.59Z"/><path class="cls-2" d="M171.48,159.28c-6,0-11.92-.06-17.88.05a4.22,4.22,0,0,1-4.16-2.13q-7.86-12-16-23.89c-1.21-1.76-.93-2.76.3-4.32,10.46-13.32,12.58-28.05,7-43.93-1.38-3.92-2.17-8.89-4.17-13.18-2.11-4.53-4.52-7.23-8.54-7.78-7-2-19.25-18.12-19.22-24,0-6.53,4.56-11.2,12-11.24,8-.05,16.05-.06,24.07,0,2.79,0,5.09-.65,5.1-3.78s-2.27-3.91-5.05-3.87c-5.22.07-10.46,0-15.68.06-1.69,0-2.45-.44-3.1-2.17C123.2,11,117,6.69,108.36,6.65q-24.63-.12-49.24,0c-3.73,0-6.62-1.15-8.58-4.39C49.18,0,47.21-.66,45,.71S42.75,4,43.84,6.11C49.59,17.48,55.66,28.69,61,40.26,70.7,61.15,71,65.39,70.91,67.45a27.07,27.07,0,0,0-13.17,11q-28,42.42-55.86,84.89c-.75,1.12-1.95,2.12-1.88,3.8H25.31c12.64,0,22.53-5.18,29.44-15.79a4.81,4.81,0,0,1,4.7-2.46c12.52.07,25,0,37.57-.06,1,0,1.88-.11,2.52.91,1.93,3,3.92,6,6.22,9.57-7.46,0-14.35,0-21.23,0-2.92,0-5.68.39-5.67,4,0,3.43,2.66,3.77,5.46,3.76l35.83,0-5.72-8.69a2.94,2.94,0,0,1-.17-.26l-.39-.6-.15-.22c-2.16-3.37-4.41-6.71-6.7-10.18,6.54-2.13,12.46-4.86,17.55-9.07,1.67-1.38,2.34-.7,3.28.72,4.38,6.66,8.84,13.27,13.72,20.58h0l5.09,7.73h24.85c2.66,0,5.08-.36,5.16-3.67C176.74,159.89,174.34,159.26,171.48,159.28ZM66.56,34.34c-2.42-4.69-4.66-9.52-7.08-14.4a4,4,0,0,1,3.59-5.8H78.45c9.59,0,19.18,0,28.77,0,6,.05,9.53,2.79,11.22,7.44-11,1-32,15.09-.32,44h-.6c-.69,0-1.39,0-2.08.06-3.92.08-7.87,0-11.94,0H84c-.41,0-.83,0-1.26,0s-1,0-1.46,0c-.73,0-1.45,0-2.16.06-.54-1.57-1.72-5-3-8.77A166.51,166.51,0,0,0,66.56,34.34Zm25.31,107H61.49c3.07-4.67,5.42-9.16,8.86-12.85a10.16,10.16,0,0,1,14.42-.35c3.64,3.66,5.9,8.37,9.1,13.08C92.75,141.27,92.31,141.32,91.87,141.32Zm28.41-9.66a49.4,49.4,0,0,1-15.44,8c-2,.6-2.81.05-3.77-1.54-2-3.32-4.37-6.43-6.35-9.78-3.86-6.52-9.24-10.51-17.41-10.67,8.55-15.7,25.27-16.54,34.94-2.16,2.85,4.24,5.62,8.52,8.56,12.69C121.9,129.69,121.79,130.51,120.28,131.66Zm5.37-9.91c-2.42-4.21-5.3-8.15-8.06-12.14-11.07-16-33.78-16-44.6.17q-12.16,18.16-24,36.51c-5.77,8.93-13.78,13.39-24.41,13.17-3.39-.07-6.78,0-10.87,0,11.13-16.93,21.79-33.14,32.46-49.35,6-9.13,12.06-18.23,18-27.39,4-6.18,9.62-9.35,17.09-9.27,8.63.09,17.27,0,25.9,0a101.17,101.17,0,0,0,12.31-.32,11.41,11.41,0,0,1,12.47,8.69c.77,3.22,1.74,6.35,2.64,9.51a35.2,35.2,0,0,1-4.91,30.29C128.24,123.74,127.41,124.81,125.65,121.75Z"/><polygon class="cls-3" points="241.44 123.47 241.44 137.16 201.97 137.16 201.97 28.14 215.89 28.14 215.89 123.47 241.44 123.47"/><path class="cls-3" d="M298.67,99,287.54,28.14H267.36l-11.18,71-5.05,38h14l3.18-23.55h18.21l3.11,23.55h14.08Zm-28.59.9,7.32-55.29,7.31,55.29Z"/><path class="cls-3" d="M361.88,28.14v88.5c0,15-7.2,22.3-22,22.34s-21.94-7.31-21.94-22.34V28.14h13.92v88.5c0,7.1,4.36,8.58,8,8.58,5.28,0,8.08-3,8.08-8.58V28.14Z"/><path class="cls-3" d="M410.72,85.87l1-.35c8-3,11.94-9,11.94-18.33V50.48c0-15-6.65-22.3-20.31-22.34H381.05v109H395V88.7l3.85-.53,14.48,49h15.28Zm-1-18.68c0,4-1.69,6.71-5,8.06a16.14,16.14,0,0,1-5,.52H395V41.84h6.72c3.66,0,8,1.5,8,8.64Z"/><polygon class="cls-3" points="457.01 41.84 457.01 75.77 478.99 75.77 478.99 89.53 457.01 89.53 457.01 123.47 482.56 123.47 482.56 137.16 443.08 137.16 443.08 28.14 482.56 28.14 482.56 41.84 457.01 41.84"/><polygon class="cls-3" points="538.93 123.47 538.93 137.16 499.45 137.16 499.45 28.14 513.38 28.14 513.38 123.47 538.93 123.47"/><path class="cls-3" d="M608.87,29.71H586.81V135.59h21.05c13.47,0,19.74-6.61,19.74-20.71V50.48C627.6,36.35,621.65,29.76,608.87,29.71Zm8,85.17c0,6.46-3.51,10.16-9.6,10.16h-9.66V40.27h9.66c6.09,0,9.6,3.72,9.6,10.21Z"/><polygon class="cls-3" points="660.13 40.27 660.13 77.35 682.11 77.35 682.11 87.96 660.13 87.96 660.13 125.04 685.67 125.04 685.67 135.59 649.36 135.59 649.36 29.71 685.67 29.71 685.67 40.27 660.13 40.27"/><polygon class="cls-3" points="750 29.71 745.19 66.11 734.27 135.59 716.78 135.59 705.82 66.05 701 29.71 711.89 29.71 725.47 126.45 739.11 29.71 750 29.71"/></g></g></svg>