<svg id="visual" viewBox="0 0 900 600" width="900" height="600" xmlns="http://www.w3.org/2000/svg" xmlns:xlink="http://www.w3.org/1999/xlink" version="1.1"><g><g transform="translate(836 160)"><path d="M0 -83L71.9 -41.5L71.9 41.5L0 83L-71.9 41.5L-71.9 -41.5Z" fill="none" stroke="#FEC53A" stroke-width="2"></path></g><g transform="translate(479 303)"><path d="M0 -58L50.2 -29L50.2 29L0 58L-50.2 29L-50.2 -29Z" fill="none" stroke="#FEC53A" stroke-width="2"></path></g><g transform="translate(37 314)"><path d="M0 -51L44.2 -25.5L44.2 25.5L0 51L-44.2 25.5L-44.2 -25.5Z" fill="none" stroke="#FEC53A" stroke-width="2"></path></g><g transform="translate(521 44)"><path d="M0 -54L46.8 -27L46.8 27L0 54L-46.8 27L-46.8 -27Z" stroke="#FEC53A" fill="none" stroke-width="2"></path></g><g transform="translate(889 460)"><path d="M0 -58L50.2 -29L50.2 29L0 58L-50.2 29L-50.2 -29Z" stroke="#FEC53A" fill="none" stroke-width="2"></path></g><g transform="translate(693 381)"><path d="M0 -46L39.8 -23L39.8 23L0 46L-39.8 23L-39.8 -23Z" stroke="#FEC53A" fill="none" stroke-width="2"></path></g></g></svg>