<svg xmlns="http://www.w3.org/2000/svg" version="1.1" xmlns:xlink="http://www.w3.org/1999/xlink" xmlns:svgjs="http://svgjs.dev/svgjs" width="1440" height="560" preserveAspectRatio="none" viewBox="0 0 1440 560"><g mask="url(&quot;#SvgjsMask1006&quot;)" fill="none"><path d="M-43.9 346.2L-43.9 346.2" stroke="rgba(254, 197, 58, 1)" stroke-width="1.5"></path><path d="M-43.9 346.2L44.41 374.86" stroke="rgba(254, 197, 58, 1)" stroke-width="1.5"></path><path d="M-43.9 346.2L-39.7 533.38" stroke="rgba(254, 197, 58, 1)" stroke-width="1.5"></path><path d="M-39.7 533.38L-39.7 533.38" stroke="rgba(254, 197, 58, 1)" stroke-width="1.5"></path><path d="M-39.7 533.38L75.07 549.54" stroke="rgba(254, 197, 58, 1)" stroke-width="1.5"></path><path d="M-39.7 533.38L53.23 674.1" stroke="rgba(254, 197, 58, 1)" stroke-width="1.5"></path><path d="M-39.7 533.38L-102.46 694.4" stroke="rgba(254, 197, 58, 1)" stroke-width="1.5"></path><path d="M-39.7 533.38L44.41 374.86" stroke="rgba(254, 197, 58, 1)" stroke-width="1.5"></path><path d="M-39.7 533.38L238.78 487.52" stroke="rgba(254, 197, 58, 1)" stroke-width="1.5"></path><path d="M-102.46 694.4L-102.46 694.4" stroke="rgba(254, 197, 58, 1)" stroke-width="1.5"></path><path d="M-102.46 694.4L53.23 674.1" stroke="rgba(254, 197, 58, 1)" stroke-width="1.5"></path><path d="M-102.46 694.4L75.07 549.54" stroke="rgba(254, 197, 58, 1)" stroke-width="1.5"></path><path d="M44.41 374.86L44.41 374.86" stroke="rgba(254, 197, 58, 1)" stroke-width="1.5"></path><path d="M44.41 374.86L75.07 549.54" stroke="rgba(254, 197, 58, 1)" stroke-width="1.5"></path><path d="M44.41 374.86L239.74 403.58" stroke="rgba(254, 197, 58, 1)" stroke-width="1.5"></path><path d="M44.41 374.86L238.78 487.52" stroke="rgba(254, 197, 58, 1)" stroke-width="1.5"></path><path d="M75.07 549.54L75.07 549.54" stroke="rgba(254, 197, 58, 1)" stroke-width="1.5"></path><path d="M75.07 549.54L53.23 674.1" stroke="rgba(254, 197, 58, 1)" stroke-width="1.5"></path><path d="M53.23 674.1L53.23 674.1" stroke="rgba(254, 197, 58, 1)" stroke-width="1.5"></path><path d="M53.23 674.1L232.08 707.41" stroke="rgba(254, 197, 58, 1)" stroke-width="1.5"></path><path d="M53.23 674.1L238.78 487.52" stroke="rgba(254, 197, 58, 1)" stroke-width="1.5"></path><path d="M53.23 674.1L44.41 374.86" stroke="rgba(254, 197, 58, 1)" stroke-width="1.5"></path><path d="M239.74 403.58L239.74 403.58" stroke="rgba(254, 197, 58, 1)" stroke-width="1.5"></path><path d="M239.74 403.58L238.78 487.52" stroke="rgba(254, 197, 58, 1)" stroke-width="1.5"></path><path d="M239.74 403.58L386.29 369.01" stroke="rgba(254, 197, 58, 1)" stroke-width="1.5"></path><path d="M238.78 487.52L238.78 487.52" stroke="rgba(254, 197, 58, 1)" stroke-width="1.5"></path><path d="M238.78 487.52L75.07 549.54" stroke="rgba(254, 197, 58, 1)" stroke-width="1.5"></path><path d="M238.78 487.52L408.43 559.72" stroke="rgba(254, 197, 58, 1)" stroke-width="1.5"></path><path d="M232.08 707.41L232.08 707.41" stroke="rgba(254, 197, 58, 1)" stroke-width="1.5"></path><path d="M232.08 707.41L400.37 668.51" stroke="rgba(254, 197, 58, 1)" stroke-width="1.5"></path><path d="M232.08 707.41L238.78 487.52" stroke="rgba(254, 197, 58, 1)" stroke-width="1.5"></path><path d="M232.08 707.41L75.07 549.54" stroke="rgba(254, 197, 58, 1)" stroke-width="1.5"></path><path d="M386.29 369.01L386.29 369.01" stroke="rgba(254, 197, 58, 1)" stroke-width="1.5"></path><path d="M386.29 369.01L495.42 395.14" stroke="rgba(254, 197, 58, 1)" stroke-width="1.5"></path><path d="M408.43 559.72L408.43 559.72" stroke="rgba(254, 197, 58, 1)" stroke-width="1.5"></path><path d="M408.43 559.72L400.37 668.51" stroke="rgba(254, 197, 58, 1)" stroke-width="1.5"></path><path d="M408.43 559.72L514.97 510.78" stroke="rgba(254, 197, 58, 1)" stroke-width="1.5"></path><path d="M408.43 559.72L495.42 395.14" stroke="rgba(254, 197, 58, 1)" stroke-width="1.5"></path><path d="M408.43 559.72L386.29 369.01" stroke="rgba(254, 197, 58, 1)" stroke-width="1.5"></path><path d="M400.37 668.51L400.37 668.51" stroke="rgba(254, 197, 58, 1)" stroke-width="1.5"></path><path d="M400.37 668.51L552.76 688.29" stroke="rgba(254, 197, 58, 1)" stroke-width="1.5"></path><path d="M400.37 668.51L514.97 510.78" stroke="rgba(254, 197, 58, 1)" stroke-width="1.5"></path><path d="M400.37 668.51L238.78 487.52" stroke="rgba(254, 197, 58, 1)" stroke-width="1.5"></path><path d="M495.42 395.14L495.42 395.14" stroke="rgba(254, 197, 58, 1)" stroke-width="1.5"></path><path d="M495.42 395.14L514.97 510.78" stroke="rgba(254, 197, 58, 1)" stroke-width="1.5"></path><path d="M514.97 510.78L514.97 510.78" stroke="rgba(254, 197, 58, 1)" stroke-width="1.5"></path><path d="M514.97 510.78L657.82 505.21" stroke="rgba(254, 197, 58, 1)" stroke-width="1.5"></path><path d="M552.76 688.29L552.76 688.29" stroke="rgba(254, 197, 58, 1)" stroke-width="1.5"></path><path d="M552.76 688.29L649.8 667.58" stroke="rgba(254, 197, 58, 1)" stroke-width="1.5"></path><path d="M552.76 688.29L514.97 510.78" stroke="rgba(254, 197, 58, 1)" stroke-width="1.5"></path><path d="M692.63 371.33L692.63 371.33" stroke="rgba(254, 197, 58, 1)" stroke-width="1.5"></path><path d="M692.63 371.33L657.82 505.21" stroke="rgba(254, 197, 58, 1)" stroke-width="1.5"></path><path d="M692.63 371.33L495.42 395.14" stroke="rgba(254, 197, 58, 1)" stroke-width="1.5"></path><path d="M692.63 371.33L829.91 533.21" stroke="rgba(254, 197, 58, 1)" stroke-width="1.5"></path><path d="M692.63 371.33L514.97 510.78" stroke="rgba(254, 197, 58, 1)" stroke-width="1.5"></path><path d="M657.82 505.21L657.82 505.21" stroke="rgba(254, 197, 58, 1)" stroke-width="1.5"></path><path d="M657.82 505.21L649.8 667.58" stroke="rgba(254, 197, 58, 1)" stroke-width="1.5"></path><path d="M649.8 667.58L649.8 667.58" stroke="rgba(254, 197, 58, 1)" stroke-width="1.5"></path><path d="M649.8 667.58L832.56 658.76" stroke="rgba(254, 197, 58, 1)" stroke-width="1.5"></path><path d="M842.52 102.34L842.52 102.34" stroke="rgba(254, 197, 58, 1)" stroke-width="1.5"></path><path d="M842.52 102.34L1001.45 44.68" stroke="rgba(254, 197, 58, 1)" stroke-width="1.5"></path><path d="M842.52 102.34L986.42 261.84" stroke="rgba(254, 197, 58, 1)" stroke-width="1.5"></path><path d="M842.52 102.34L958.1 -111.18" stroke="rgba(254, 197, 58, 1)" stroke-width="1.5"></path><path d="M829.91 533.21L829.91 533.21" stroke="rgba(254, 197, 58, 1)" stroke-width="1.5"></path><path d="M829.91 533.21L832.56 658.76" stroke="rgba(254, 197, 58, 1)" stroke-width="1.5"></path><path d="M829.91 533.21L959.31 527.77" stroke="rgba(254, 197, 58, 1)" stroke-width="1.5"></path><path d="M829.91 533.21L657.82 505.21" stroke="rgba(254, 197, 58, 1)" stroke-width="1.5"></path><path d="M829.91 533.21L959.97 682.58" stroke="rgba(254, 197, 58, 1)" stroke-width="1.5"></path><path d="M829.91 533.21L950.43 371.05" stroke="rgba(254, 197, 58, 1)" stroke-width="1.5"></path><path d="M832.56 658.76L832.56 658.76" stroke="rgba(254, 197, 58, 1)" stroke-width="1.5"></path><path d="M832.56 658.76L959.97 682.58" stroke="rgba(254, 197, 58, 1)" stroke-width="1.5"></path><path d="M832.56 658.76L959.31 527.77" stroke="rgba(254, 197, 58, 1)" stroke-width="1.5"></path><path d="M832.56 658.76L657.82 505.21" stroke="rgba(254, 197, 58, 1)" stroke-width="1.5"></path><path d="M832.56 658.76L552.76 688.29" stroke="rgba(254, 197, 58, 1)" stroke-width="1.5"></path><path d="M958.1 -111.18L958.1 -111.18" stroke="rgba(254, 197, 58, 1)" stroke-width="1.5"></path><path d="M958.1 -111.18L1100.21 -70.25" stroke="rgba(254, 197, 58, 1)" stroke-width="1.5"></path><path d="M958.1 -111.18L1001.45 44.68" stroke="rgba(254, 197, 58, 1)" stroke-width="1.5"></path><path d="M1001.45 44.68L1001.45 44.68" stroke="rgba(254, 197, 58, 1)" stroke-width="1.5"></path><path d="M1001.45 44.68L1147.5 68.55" stroke="rgba(254, 197, 58, 1)" stroke-width="1.5"></path><path d="M1001.45 44.68L1100.21 -70.25" stroke="rgba(254, 197, 58, 1)" stroke-width="1.5"></path><path d="M1001.45 44.68L986.42 261.84" stroke="rgba(254, 197, 58, 1)" stroke-width="1.5"></path><path d="M986.42 261.84L986.42 261.84" stroke="rgba(254, 197, 58, 1)" stroke-width="1.5"></path><path d="M986.42 261.84L950.43 371.05" stroke="rgba(254, 197, 58, 1)" stroke-width="1.5"></path><path d="M986.42 261.84L1120.1 253.27" stroke="rgba(254, 197, 58, 1)" stroke-width="1.5"></path><path d="M986.42 261.84L1137.85 356.42" stroke="rgba(254, 197, 58, 1)" stroke-width="1.5"></path><path d="M986.42 261.84L1147.5 68.55" stroke="rgba(254, 197, 58, 1)" stroke-width="1.5"></path><path d="M950.43 371.05L950.43 371.05" stroke="rgba(254, 197, 58, 1)" stroke-width="1.5"></path><path d="M950.43 371.05L959.31 527.77" stroke="rgba(254, 197, 58, 1)" stroke-width="1.5"></path><path d="M950.43 371.05L1137.85 356.42" stroke="rgba(254, 197, 58, 1)" stroke-width="1.5"></path><path d="M950.43 371.05L1120.1 253.27" stroke="rgba(254, 197, 58, 1)" stroke-width="1.5"></path><path d="M950.43 371.05L692.63 371.33" stroke="rgba(254, 197, 58, 1)" stroke-width="1.5"></path><path d="M959.31 527.77L959.31 527.77" stroke="rgba(254, 197, 58, 1)" stroke-width="1.5"></path><path d="M959.31 527.77L959.97 682.58" stroke="rgba(254, 197, 58, 1)" stroke-width="1.5"></path><path d="M959.31 527.77L1156.17 554.91" stroke="rgba(254, 197, 58, 1)" stroke-width="1.5"></path><path d="M959.31 527.77L1137.85 356.42" stroke="rgba(254, 197, 58, 1)" stroke-width="1.5"></path><path d="M959.97 682.58L959.97 682.58" stroke="rgba(254, 197, 58, 1)" stroke-width="1.5"></path><path d="M959.97 682.58L1161.99 701.27" stroke="rgba(254, 197, 58, 1)" stroke-width="1.5"></path><path d="M959.97 682.58L1156.17 554.91" stroke="rgba(254, 197, 58, 1)" stroke-width="1.5"></path><path d="M1100.21 -70.25L1100.21 -70.25" stroke="rgba(254, 197, 58, 1)" stroke-width="1.5"></path><path d="M1100.21 -70.25L1147.5 68.55" stroke="rgba(254, 197, 58, 1)" stroke-width="1.5"></path><path d="M1147.5 68.55L1147.5 68.55" stroke="rgba(254, 197, 58, 1)" stroke-width="1.5"></path><path d="M1147.5 68.55L1301.46 87.37" stroke="rgba(254, 197, 58, 1)" stroke-width="1.5"></path><path d="M1120.1 253.27L1120.1 253.27" stroke="rgba(254, 197, 58, 1)" stroke-width="1.5"></path><path d="M1120.1 253.27L1137.85 356.42" stroke="rgba(254, 197, 58, 1)" stroke-width="1.5"></path><path d="M1120.1 253.27L1241.29 204.02" stroke="rgba(254, 197, 58, 1)" stroke-width="1.5"></path><path d="M1120.1 253.27L1147.5 68.55" stroke="rgba(254, 197, 58, 1)" stroke-width="1.5"></path><path d="M1120.1 253.27L1308.63 372.52" stroke="rgba(254, 197, 58, 1)" stroke-width="1.5"></path><path d="M1137.85 356.42L1137.85 356.42" stroke="rgba(254, 197, 58, 1)" stroke-width="1.5"></path><path d="M1137.85 356.42L1308.63 372.52" stroke="rgba(254, 197, 58, 1)" stroke-width="1.5"></path><path d="M1156.17 554.91L1156.17 554.91" stroke="rgba(254, 197, 58, 1)" stroke-width="1.5"></path><path d="M1156.17 554.91L1161.99 701.27" stroke="rgba(254, 197, 58, 1)" stroke-width="1.5"></path><path d="M1156.17 554.91L1266.91 651.82" stroke="rgba(254, 197, 58, 1)" stroke-width="1.5"></path><path d="M1156.17 554.91L1306.85 491.55" stroke="rgba(254, 197, 58, 1)" stroke-width="1.5"></path><path d="M1161.99 701.27L1161.99 701.27" stroke="rgba(254, 197, 58, 1)" stroke-width="1.5"></path><path d="M1161.99 701.27L1266.91 651.82" stroke="rgba(254, 197, 58, 1)" stroke-width="1.5"></path><path d="M1161.99 701.27L1306.85 491.55" stroke="rgba(254, 197, 58, 1)" stroke-width="1.5"></path><path d="M1161.99 701.27L1425.07 697.49" stroke="rgba(254, 197, 58, 1)" stroke-width="1.5"></path><path d="M1161.99 701.27L959.31 527.77" stroke="rgba(254, 197, 58, 1)" stroke-width="1.5"></path><path d="M1263.35 -93.85L1263.35 -93.85" stroke="rgba(254, 197, 58, 1)" stroke-width="1.5"></path><path d="M1263.35 -93.85L1100.21 -70.25" stroke="rgba(254, 197, 58, 1)" stroke-width="1.5"></path><path d="M1263.35 -93.85L1434.41 -101.84" stroke="rgba(254, 197, 58, 1)" stroke-width="1.5"></path><path d="M1263.35 -93.85L1301.46 87.37" stroke="rgba(254, 197, 58, 1)" stroke-width="1.5"></path><path d="M1263.35 -93.85L1147.5 68.55" stroke="rgba(254, 197, 58, 1)" stroke-width="1.5"></path><path d="M1263.35 -93.85L1455.26 95.61" stroke="rgba(254, 197, 58, 1)" stroke-width="1.5"></path><path d="M1263.35 -93.85L1549.58 -45.69" stroke="rgba(254, 197, 58, 1)" stroke-width="1.5"></path><path d="M1301.46 87.37L1301.46 87.37" stroke="rgba(254, 197, 58, 1)" stroke-width="1.5"></path><path d="M1301.46 87.37L1241.29 204.02" stroke="rgba(254, 197, 58, 1)" stroke-width="1.5"></path><path d="M1301.46 87.37L1455.26 95.61" stroke="rgba(254, 197, 58, 1)" stroke-width="1.5"></path><path d="M1301.46 87.37L1418.77 231.21" stroke="rgba(254, 197, 58, 1)" stroke-width="1.5"></path><path d="M1301.46 87.37L1434.41 -101.84" stroke="rgba(254, 197, 58, 1)" stroke-width="1.5"></path><path d="M1241.29 204.02L1241.29 204.02" stroke="rgba(254, 197, 58, 1)" stroke-width="1.5"></path><path d="M1308.63 372.52L1308.63 372.52" stroke="rgba(254, 197, 58, 1)" stroke-width="1.5"></path><path d="M1308.63 372.52L1404.27 373.84" stroke="rgba(254, 197, 58, 1)" stroke-width="1.5"></path><path d="M1308.63 372.52L1306.85 491.55" stroke="rgba(254, 197, 58, 1)" stroke-width="1.5"></path><path d="M1306.85 491.55L1306.85 491.55" stroke="rgba(254, 197, 58, 1)" stroke-width="1.5"></path><path d="M1306.85 491.55L1440.64 519.63" stroke="rgba(254, 197, 58, 1)" stroke-width="1.5"></path><path d="M1306.85 491.55L1404.27 373.84" stroke="rgba(254, 197, 58, 1)" stroke-width="1.5"></path><path d="M1266.91 651.82L1266.91 651.82" stroke="rgba(254, 197, 58, 1)" stroke-width="1.5"></path><path d="M1266.91 651.82L1425.07 697.49" stroke="rgba(254, 197, 58, 1)" stroke-width="1.5"></path><path d="M1434.41 -101.84L1434.41 -101.84" stroke="rgba(254, 197, 58, 1)" stroke-width="1.5"></path><path d="M1434.41 -101.84L1549.58 -45.69" stroke="rgba(254, 197, 58, 1)" stroke-width="1.5"></path><path d="M1434.41 -101.84L1540.79 53.46" stroke="rgba(254, 197, 58, 1)" stroke-width="1.5"></path><path d="M1434.41 -101.84L1455.26 95.61" stroke="rgba(254, 197, 58, 1)" stroke-width="1.5"></path><path d="M1434.41 -101.84L1418.77 231.21" stroke="rgba(254, 197, 58, 1)" stroke-width="1.5"></path><path d="M1455.26 95.61L1455.26 95.61" stroke="rgba(254, 197, 58, 1)" stroke-width="1.5"></path><path d="M1455.26 95.61L1540.79 53.46" stroke="rgba(254, 197, 58, 1)" stroke-width="1.5"></path><path d="M1455.26 95.61L1418.77 231.21" stroke="rgba(254, 197, 58, 1)" stroke-width="1.5"></path><path d="M1418.77 231.21L1418.77 231.21" stroke="rgba(254, 197, 58, 1)" stroke-width="1.5"></path><path d="M1418.77 231.21L1404.27 373.84" stroke="rgba(254, 197, 58, 1)" stroke-width="1.5"></path><path d="M1418.77 231.21L1570.25 236.92" stroke="rgba(254, 197, 58, 1)" stroke-width="1.5"></path><path d="M1418.77 231.21L1308.63 372.52" stroke="rgba(254, 197, 58, 1)" stroke-width="1.5"></path><path d="M1418.77 231.21L1241.29 204.02" stroke="rgba(254, 197, 58, 1)" stroke-width="1.5"></path><path d="M1404.27 373.84L1404.27 373.84" stroke="rgba(254, 197, 58, 1)" stroke-width="1.5"></path><path d="M1404.27 373.84L1440.64 519.63" stroke="rgba(254, 197, 58, 1)" stroke-width="1.5"></path><path d="M1440.64 519.63L1440.64 519.63" stroke="rgba(254, 197, 58, 1)" stroke-width="1.5"></path><path d="M1440.64 519.63L1559.41 489.38" stroke="rgba(254, 197, 58, 1)" stroke-width="1.5"></path><path d="M1425.07 697.49L1425.07 697.49" stroke="rgba(254, 197, 58, 1)" stroke-width="1.5"></path><path d="M1425.07 697.49L1539.37 705.97" stroke="rgba(254, 197, 58, 1)" stroke-width="1.5"></path><path d="M1549.58 -45.69L1549.58 -45.69" stroke="rgba(254, 197, 58, 1)" stroke-width="1.5"></path><path d="M1549.58 -45.69L1540.79 53.46" stroke="rgba(254, 197, 58, 1)" stroke-width="1.5"></path><path d="M1549.58 -45.69L1455.26 95.61" stroke="rgba(254, 197, 58, 1)" stroke-width="1.5"></path><path d="M1549.58 -45.69L1301.46 87.37" stroke="rgba(254, 197, 58, 1)" stroke-width="1.5"></path><path d="M1549.58 -45.69L1570.25 236.92" stroke="rgba(254, 197, 58, 1)" stroke-width="1.5"></path><path d="M1540.79 53.46L1540.79 53.46" stroke="rgba(254, 197, 58, 1)" stroke-width="1.5"></path><path d="M1540.79 53.46L1570.25 236.92" stroke="rgba(254, 197, 58, 1)" stroke-width="1.5"></path><path d="M1570.25 236.92L1570.25 236.92" stroke="rgba(254, 197, 58, 1)" stroke-width="1.5"></path><path d="M1570.25 236.92L1600.86 367.43" stroke="rgba(254, 197, 58, 1)" stroke-width="1.5"></path><path d="M1570.25 236.92L1455.26 95.61" stroke="rgba(254, 197, 58, 1)" stroke-width="1.5"></path><path d="M1600.86 367.43L1600.86 367.43" stroke="rgba(254, 197, 58, 1)" stroke-width="1.5"></path><path d="M1600.86 367.43L1559.41 489.38" stroke="rgba(254, 197, 58, 1)" stroke-width="1.5"></path><path d="M1600.86 367.43L1404.27 373.84" stroke="rgba(254, 197, 58, 1)" stroke-width="1.5"></path><path d="M1600.86 367.43L1440.64 519.63" stroke="rgba(254, 197, 58, 1)" stroke-width="1.5"></path><path d="M1600.86 367.43L1418.77 231.21" stroke="rgba(254, 197, 58, 1)" stroke-width="1.5"></path><path d="M1600.86 367.43L1308.63 372.52" stroke="rgba(254, 197, 58, 1)" stroke-width="1.5"></path><path d="M1559.41 489.38L1559.41 489.38" stroke="rgba(254, 197, 58, 1)" stroke-width="1.5"></path><path d="M1539.37 705.97L1539.37 705.97" stroke="rgba(254, 197, 58, 1)" stroke-width="1.5"></path><path d="M1539.37 705.97L1440.64 519.63" stroke="rgba(254, 197, 58, 1)" stroke-width="1.5"></path><circle r="5" cx="-43.9" cy="346.2" fill="rgba(254, 197, 58, 1)"></circle><circle r="5" cx="-39.7" cy="533.38" fill="rgba(254, 197, 58, 1)"></circle><circle r="5" cx="-102.46" cy="694.4" fill="rgba(254, 197, 58, 1)"></circle><circle r="5" cx="44.41" cy="374.86" fill="rgba(254, 197, 58, 1)"></circle><circle r="5" cx="75.07" cy="549.54" fill="rgba(254, 197, 58, 1)"></circle><circle r="5" cx="53.23" cy="674.1" fill="rgba(254, 197, 58, 1)"></circle><circle r="5" cx="239.74" cy="403.58" fill="rgba(254, 197, 58, 1)"></circle><circle r="5" cx="238.78" cy="487.52" fill="rgba(254, 197, 58, 1)"></circle><circle r="5" cx="232.08" cy="707.41" fill="rgba(254, 197, 58, 1)"></circle><circle r="5" cx="386.29" cy="369.01" fill="rgba(254, 197, 58, 1)"></circle><circle r="5" cx="408.43" cy="559.72" fill="rgba(254, 197, 58, 1)"></circle><circle r="5" cx="400.37" cy="668.51" fill="rgba(254, 197, 58, 1)"></circle><circle r="5" cx="495.42" cy="395.14" fill="rgba(254, 197, 58, 1)"></circle><circle r="5" cx="514.97" cy="510.78" fill="rgba(254, 197, 58, 1)"></circle><circle r="5" cx="552.76" cy="688.29" fill="rgba(254, 197, 58, 1)"></circle><circle r="5" cx="692.63" cy="371.33" fill="rgba(254, 197, 58, 1)"></circle><circle r="5" cx="657.82" cy="505.21" fill="rgba(254, 197, 58, 1)"></circle><circle r="5" cx="649.8" cy="667.58" fill="rgba(254, 197, 58, 1)"></circle><circle r="5" cx="842.52" cy="102.34" fill="rgba(254, 197, 58, 1)"></circle><circle r="5" cx="829.91" cy="533.21" fill="rgba(254, 197, 58, 1)"></circle><circle r="5" cx="832.56" cy="658.76" fill="rgba(254, 197, 58, 1)"></circle><circle r="5" cx="958.1" cy="-111.18" fill="rgba(254, 197, 58, 1)"></circle><circle r="5" cx="1001.45" cy="44.68" fill="rgba(254, 197, 58, 1)"></circle><circle r="5" cx="986.42" cy="261.84" fill="rgba(254, 197, 58, 1)"></circle><circle r="5" cx="950.43" cy="371.05" fill="rgba(254, 197, 58, 1)"></circle><circle r="5" cx="959.31" cy="527.77" fill="rgba(254, 197, 58, 1)"></circle><circle r="5" cx="959.97" cy="682.58" fill="rgba(254, 197, 58, 1)"></circle><circle r="5" cx="1100.21" cy="-70.25" fill="rgba(254, 197, 58, 1)"></circle><circle r="5" cx="1147.5" cy="68.55" fill="rgba(254, 197, 58, 1)"></circle><circle r="5" cx="1120.1" cy="253.27" fill="rgba(254, 197, 58, 1)"></circle><circle r="5" cx="1137.85" cy="356.42" fill="rgba(254, 197, 58, 1)"></circle><circle r="5" cx="1156.17" cy="554.91" fill="rgba(254, 197, 58, 1)"></circle><circle r="5" cx="1161.99" cy="701.27" fill="rgba(254, 197, 58, 1)"></circle><circle r="5" cx="1263.35" cy="-93.85" fill="rgba(254, 197, 58, 1)"></circle><circle r="5" cx="1301.46" cy="87.37" fill="rgba(254, 197, 58, 1)"></circle><circle r="5" cx="1241.29" cy="204.02" fill="rgba(254, 197, 58, 1)"></circle><circle r="5" cx="1308.63" cy="372.52" fill="rgba(254, 197, 58, 1)"></circle><circle r="5" cx="1306.85" cy="491.55" fill="rgba(254, 197, 58, 1)"></circle><circle r="5" cx="1266.91" cy="651.82" fill="rgba(254, 197, 58, 1)"></circle><circle r="5" cx="1434.41" cy="-101.84" fill="rgba(254, 197, 58, 1)"></circle><circle r="5" cx="1455.26" cy="95.61" fill="rgba(254, 197, 58, 1)"></circle><circle r="5" cx="1418.77" cy="231.21" fill="rgba(254, 197, 58, 1)"></circle><circle r="5" cx="1404.27" cy="373.84" fill="rgba(254, 197, 58, 1)"></circle><circle r="5" cx="1440.64" cy="519.63" fill="rgba(254, 197, 58, 1)"></circle><circle r="5" cx="1425.07" cy="697.49" fill="rgba(254, 197, 58, 1)"></circle><circle r="5" cx="1549.58" cy="-45.69" fill="rgba(254, 197, 58, 1)"></circle><circle r="5" cx="1540.79" cy="53.46" fill="rgba(254, 197, 58, 1)"></circle><circle r="5" cx="1570.25" cy="236.92" fill="rgba(254, 197, 58, 1)"></circle><circle r="5" cx="1600.86" cy="367.43" fill="rgba(254, 197, 58, 1)"></circle><circle r="5" cx="1559.41" cy="489.38" fill="rgba(254, 197, 58, 1)"></circle><circle r="5" cx="1539.37" cy="705.97" fill="rgba(254, 197, 58, 1)"></circle><path d="M66.94 662.95L66.94 662.95" stroke="hsl(42.60000000000002, 99%, 79.5%)" stroke-width="1.5"></path><path d="M66.94 662.95L-86.66 679.53" stroke="hsl(42.60000000000002, 99%, 79.5%)" stroke-width="1.5"></path><path d="M996.86 256.48L996.86 256.48" stroke="hsl(42.60000000000002, 99%, 79.5%)" stroke-width="1.5"></path><path d="M996.86 256.48L1141.61 210.72" stroke="hsl(42.60000000000002, 99%, 79.5%)" stroke-width="1.5"></path><path d="M996.86 256.48L978.45 407.68" stroke="hsl(42.60000000000002, 99%, 79.5%)" stroke-width="1.5"></path><path d="M996.86 256.48L1096.93 373.96" stroke="hsl(42.60000000000002, 99%, 79.5%)" stroke-width="1.5"></path><path d="M976.31 522.3L976.31 522.3" stroke="hsl(42.60000000000002, 99%, 79.5%)" stroke-width="1.5"></path><path d="M976.31 522.3L978.45 407.68" stroke="hsl(42.60000000000002, 99%, 79.5%)" stroke-width="1.5"></path><path d="M976.31 522.3L1095.45 491.09" stroke="hsl(42.60000000000002, 99%, 79.5%)" stroke-width="1.5"></path><path d="M976.31 522.3L972.37 654.06" stroke="hsl(42.60000000000002, 99%, 79.5%)" stroke-width="1.5"></path><path d="M976.31 522.3L790.92 493.17" stroke="hsl(42.60000000000002, 99%, 79.5%)" stroke-width="1.5"></path><path d="M1095.45 491.09L1095.45 491.09" stroke="hsl(42.60000000000002, 99%, 79.5%)" stroke-width="1.5"></path><path d="M1095.45 491.09L1096.93 373.96" stroke="hsl(42.60000000000002, 99%, 79.5%)" stroke-width="1.5"></path><path d="M1095.45 491.09L978.45 407.68" stroke="hsl(42.60000000000002, 99%, 79.5%)" stroke-width="1.5"></path><path d="M1095.45 491.09L1274.3 530.07" stroke="hsl(42.60000000000002, 99%, 79.5%)" stroke-width="1.5"></path><path d="M1095.45 491.09L1093.58 682.54" stroke="hsl(42.60000000000002, 99%, 79.5%)" stroke-width="1.5"></path><path d="M1093.58 682.54L1093.58 682.54" stroke="hsl(42.60000000000002, 99%, 79.5%)" stroke-width="1.5"></path><path d="M1093.58 682.54L972.37 654.06" stroke="hsl(42.60000000000002, 99%, 79.5%)" stroke-width="1.5"></path><path d="M1093.58 682.54L1268.53 643.16" stroke="hsl(42.60000000000002, 99%, 79.5%)" stroke-width="1.5"></path><path d="M1269.48 109.48L1269.48 109.48" stroke="hsl(42.60000000000002, 99%, 79.5%)" stroke-width="1.5"></path><path d="M1269.48 109.48L1243.57 199.1" stroke="hsl(42.60000000000002, 99%, 79.5%)" stroke-width="1.5"></path><path d="M1269.48 109.48L1274.32 -47.05" stroke="hsl(42.60000000000002, 99%, 79.5%)" stroke-width="1.5"></path><path d="M1269.48 109.48L1141.61 210.72" stroke="hsl(42.60000000000002, 99%, 79.5%)" stroke-width="1.5"></path><path d="M1269.48 109.48L1448.71 77.54" stroke="hsl(42.60000000000002, 99%, 79.5%)" stroke-width="1.5"></path><path d="M1269.48 109.48L1458.37 257.61" stroke="hsl(42.60000000000002, 99%, 79.5%)" stroke-width="1.5"></path><path d="M1254.38 376.41L1254.38 376.41" stroke="hsl(42.60000000000002, 99%, 79.5%)" stroke-width="1.5"></path><path d="M1254.38 376.41L1274.3 530.07" stroke="hsl(42.60000000000002, 99%, 79.5%)" stroke-width="1.5"></path><path d="M1254.38 376.41L1096.93 373.96" stroke="hsl(42.60000000000002, 99%, 79.5%)" stroke-width="1.5"></path><path d="M1254.38 376.41L1243.57 199.1" stroke="hsl(42.60000000000002, 99%, 79.5%)" stroke-width="1.5"></path><path d="M1254.38 376.41L1444.96 378.52" stroke="hsl(42.60000000000002, 99%, 79.5%)" stroke-width="1.5"></path><path d="M1458.37 257.61L1458.37 257.61" stroke="hsl(42.60000000000002, 99%, 79.5%)" stroke-width="1.5"></path><path d="M1458.37 257.61L1444.96 378.52" stroke="hsl(42.60000000000002, 99%, 79.5%)" stroke-width="1.5"></path><path d="M1458.37 257.61L1609.07 235.11" stroke="hsl(42.60000000000002, 99%, 79.5%)" stroke-width="1.5"></path><path d="M1458.37 257.61L1567.05 366.62" stroke="hsl(42.60000000000002, 99%, 79.5%)" stroke-width="1.5"></path><path d="M1458.37 257.61L1448.71 77.54" stroke="hsl(42.60000000000002, 99%, 79.5%)" stroke-width="1.5"></path><path d="M1458.37 257.61L1243.57 199.1" stroke="hsl(42.60000000000002, 99%, 79.5%)" stroke-width="1.5"></path><path d="M1458.37 257.61L1254.38 376.41" stroke="hsl(42.60000000000002, 99%, 79.5%)" stroke-width="1.5"></path><path d="M1581.23 673.4L1581.23 673.4" stroke="hsl(42.60000000000002, 99%, 79.5%)" stroke-width="1.5"></path><path d="M1581.23 673.4L1459.99 653.68" stroke="hsl(42.60000000000002, 99%, 79.5%)" stroke-width="1.5"></path><path d="M1581.23 673.4L1591.57 497.18" stroke="hsl(42.60000000000002, 99%, 79.5%)" stroke-width="1.5"></path><path d="M-86.68 520.41L-86.68 520.41" stroke="hsl(42.60000000000002, 99%, 79.5%)" stroke-width="1.5"></path><path d="M-86.68 520.41L-86.66 679.53" stroke="hsl(42.60000000000002, 99%, 79.5%)" stroke-width="1.5"></path><path d="M-86.68 520.41L111.88 491.29" stroke="hsl(42.60000000000002, 99%, 79.5%)" stroke-width="1.5"></path><path d="M-86.66 679.53L-86.66 679.53" stroke="hsl(42.60000000000002, 99%, 79.5%)" stroke-width="1.5"></path><path d="M-86.66 679.53L111.88 491.29" stroke="hsl(42.60000000000002, 99%, 79.5%)" stroke-width="1.5"></path><path d="M-86.66 679.53L217.18 503.62" stroke="hsl(42.60000000000002, 99%, 79.5%)" stroke-width="1.5"></path><path d="M111.88 491.29L111.88 491.29" stroke="hsl(42.60000000000002, 99%, 79.5%)" stroke-width="1.5"></path><path d="M111.88 491.29L217.18 503.62" stroke="hsl(42.60000000000002, 99%, 79.5%)" stroke-width="1.5"></path><path d="M111.88 491.29L66.94 662.95" stroke="hsl(42.60000000000002, 99%, 79.5%)" stroke-width="1.5"></path><path d="M111.88 491.29L349.81 529.76" stroke="hsl(42.60000000000002, 99%, 79.5%)" stroke-width="1.5"></path><path d="M217.18 503.62L217.18 503.62" stroke="hsl(42.60000000000002, 99%, 79.5%)" stroke-width="1.5"></path><path d="M217.18 503.62L349.81 529.76" stroke="hsl(42.60000000000002, 99%, 79.5%)" stroke-width="1.5"></path><path d="M217.18 503.62L357.04 655.78" stroke="hsl(42.60000000000002, 99%, 79.5%)" stroke-width="1.5"></path><path d="M217.18 503.62L66.94 662.95" stroke="hsl(42.60000000000002, 99%, 79.5%)" stroke-width="1.5"></path><path d="M217.18 503.62L512.94 538.99" stroke="hsl(42.60000000000002, 99%, 79.5%)" stroke-width="1.5"></path><path d="M217.18 503.62L-86.68 520.41" stroke="hsl(42.60000000000002, 99%, 79.5%)" stroke-width="1.5"></path><path d="M349.81 529.76L349.81 529.76" stroke="hsl(42.60000000000002, 99%, 79.5%)" stroke-width="1.5"></path><path d="M349.81 529.76L357.04 655.78" stroke="hsl(42.60000000000002, 99%, 79.5%)" stroke-width="1.5"></path><path d="M357.04 655.78L357.04 655.78" stroke="hsl(42.60000000000002, 99%, 79.5%)" stroke-width="1.5"></path><path d="M357.04 655.78L512.94 538.99" stroke="hsl(42.60000000000002, 99%, 79.5%)" stroke-width="1.5"></path><path d="M357.04 655.78L66.94 662.95" stroke="hsl(42.60000000000002, 99%, 79.5%)" stroke-width="1.5"></path><path d="M357.04 655.78L111.88 491.29" stroke="hsl(42.60000000000002, 99%, 79.5%)" stroke-width="1.5"></path><path d="M512.94 538.99L512.94 538.99" stroke="hsl(42.60000000000002, 99%, 79.5%)" stroke-width="1.5"></path><path d="M512.94 538.99L349.81 529.76" stroke="hsl(42.60000000000002, 99%, 79.5%)" stroke-width="1.5"></path><path d="M512.94 538.99L678.27 547.89" stroke="hsl(42.60000000000002, 99%, 79.5%)" stroke-width="1.5"></path><path d="M512.94 538.99L653.16 669.26" stroke="hsl(42.60000000000002, 99%, 79.5%)" stroke-width="1.5"></path><path d="M678.27 547.89L678.27 547.89" stroke="hsl(42.60000000000002, 99%, 79.5%)" stroke-width="1.5"></path><path d="M678.27 547.89L653.16 669.26" stroke="hsl(42.60000000000002, 99%, 79.5%)" stroke-width="1.5"></path><path d="M678.27 547.89L790.92 493.17" stroke="hsl(42.60000000000002, 99%, 79.5%)" stroke-width="1.5"></path><path d="M653.16 669.26L653.16 669.26" stroke="hsl(42.60000000000002, 99%, 79.5%)" stroke-width="1.5"></path><path d="M653.16 669.26L817.93 697.38" stroke="hsl(42.60000000000002, 99%, 79.5%)" stroke-width="1.5"></path><path d="M653.16 669.26L790.92 493.17" stroke="hsl(42.60000000000002, 99%, 79.5%)" stroke-width="1.5"></path><path d="M653.16 669.26L357.04 655.78" stroke="hsl(42.60000000000002, 99%, 79.5%)" stroke-width="1.5"></path><path d="M653.16 669.26L791.1 386.88" stroke="hsl(42.60000000000002, 99%, 79.5%)" stroke-width="1.5"></path><path d="M791.1 386.88L791.1 386.88" stroke="hsl(42.60000000000002, 99%, 79.5%)" stroke-width="1.5"></path><path d="M791.1 386.88L790.92 493.17" stroke="hsl(42.60000000000002, 99%, 79.5%)" stroke-width="1.5"></path><path d="M791.1 386.88L978.45 407.68" stroke="hsl(42.60000000000002, 99%, 79.5%)" stroke-width="1.5"></path><path d="M791.1 386.88L678.27 547.89" stroke="hsl(42.60000000000002, 99%, 79.5%)" stroke-width="1.5"></path><path d="M791.1 386.88L976.31 522.3" stroke="hsl(42.60000000000002, 99%, 79.5%)" stroke-width="1.5"></path><path d="M791.1 386.88L996.86 256.48" stroke="hsl(42.60000000000002, 99%, 79.5%)" stroke-width="1.5"></path><path d="M790.92 493.17L790.92 493.17" stroke="hsl(42.60000000000002, 99%, 79.5%)" stroke-width="1.5"></path><path d="M817.93 697.38L817.93 697.38" stroke="hsl(42.60000000000002, 99%, 79.5%)" stroke-width="1.5"></path><path d="M817.93 697.38L972.37 654.06" stroke="hsl(42.60000000000002, 99%, 79.5%)" stroke-width="1.5"></path><path d="M817.93 697.38L678.27 547.89" stroke="hsl(42.60000000000002, 99%, 79.5%)" stroke-width="1.5"></path><path d="M817.93 697.38L790.92 493.17" stroke="hsl(42.60000000000002, 99%, 79.5%)" stroke-width="1.5"></path><path d="M817.93 697.38L976.31 522.3" stroke="hsl(42.60000000000002, 99%, 79.5%)" stroke-width="1.5"></path><path d="M817.93 697.38L1093.58 682.54" stroke="hsl(42.60000000000002, 99%, 79.5%)" stroke-width="1.5"></path><path d="M978.45 407.68L978.45 407.68" stroke="hsl(42.60000000000002, 99%, 79.5%)" stroke-width="1.5"></path><path d="M978.45 407.68L1096.93 373.96" stroke="hsl(42.60000000000002, 99%, 79.5%)" stroke-width="1.5"></path><path d="M978.45 407.68L790.92 493.17" stroke="hsl(42.60000000000002, 99%, 79.5%)" stroke-width="1.5"></path><path d="M972.37 654.06L972.37 654.06" stroke="hsl(42.60000000000002, 99%, 79.5%)" stroke-width="1.5"></path><path d="M1141.61 210.72L1141.61 210.72" stroke="hsl(42.60000000000002, 99%, 79.5%)" stroke-width="1.5"></path><path d="M1141.61 210.72L1243.57 199.1" stroke="hsl(42.60000000000002, 99%, 79.5%)" stroke-width="1.5"></path><path d="M1141.61 210.72L1096.93 373.96" stroke="hsl(42.60000000000002, 99%, 79.5%)" stroke-width="1.5"></path><path d="M1096.93 373.96L1096.93 373.96" stroke="hsl(42.60000000000002, 99%, 79.5%)" stroke-width="1.5"></path><path d="M1274.32 -47.05L1274.32 -47.05" stroke="hsl(42.60000000000002, 99%, 79.5%)" stroke-width="1.5"></path><path d="M1274.32 -47.05L1451.02 -88.05" stroke="hsl(42.60000000000002, 99%, 79.5%)" stroke-width="1.5"></path><path d="M1274.32 -47.05L1448.71 77.54" stroke="hsl(42.60000000000002, 99%, 79.5%)" stroke-width="1.5"></path><path d="M1274.32 -47.05L1243.57 199.1" stroke="hsl(42.60000000000002, 99%, 79.5%)" stroke-width="1.5"></path><path d="M1243.57 199.1L1243.57 199.1" stroke="hsl(42.60000000000002, 99%, 79.5%)" stroke-width="1.5"></path><path d="M1274.3 530.07L1274.3 530.07" stroke="hsl(42.60000000000002, 99%, 79.5%)" stroke-width="1.5"></path><path d="M1274.3 530.07L1268.53 643.16" stroke="hsl(42.60000000000002, 99%, 79.5%)" stroke-width="1.5"></path><path d="M1274.3 530.07L1441.29 497.51" stroke="hsl(42.60000000000002, 99%, 79.5%)" stroke-width="1.5"></path><path d="M1274.3 530.07L1459.99 653.68" stroke="hsl(42.60000000000002, 99%, 79.5%)" stroke-width="1.5"></path><path d="M1274.3 530.07L1444.96 378.52" stroke="hsl(42.60000000000002, 99%, 79.5%)" stroke-width="1.5"></path><path d="M1268.53 643.16L1268.53 643.16" stroke="hsl(42.60000000000002, 99%, 79.5%)" stroke-width="1.5"></path><path d="M1268.53 643.16L1459.99 653.68" stroke="hsl(42.60000000000002, 99%, 79.5%)" stroke-width="1.5"></path><path d="M1268.53 643.16L1441.29 497.51" stroke="hsl(42.60000000000002, 99%, 79.5%)" stroke-width="1.5"></path><path d="M1451.02 -88.05L1451.02 -88.05" stroke="hsl(42.60000000000002, 99%, 79.5%)" stroke-width="1.5"></path><path d="M1451.02 -88.05L1548.27 -98.13" stroke="hsl(42.60000000000002, 99%, 79.5%)" stroke-width="1.5"></path><path d="M1451.02 -88.05L1448.71 77.54" stroke="hsl(42.60000000000002, 99%, 79.5%)" stroke-width="1.5"></path><path d="M1448.71 77.54L1448.71 77.54" stroke="hsl(42.60000000000002, 99%, 79.5%)" stroke-width="1.5"></path><path d="M1448.71 77.54L1611.74 45.7" stroke="hsl(42.60000000000002, 99%, 79.5%)" stroke-width="1.5"></path><path d="M1444.96 378.52L1444.96 378.52" stroke="hsl(42.60000000000002, 99%, 79.5%)" stroke-width="1.5"></path><path d="M1444.96 378.52L1441.29 497.51" stroke="hsl(42.60000000000002, 99%, 79.5%)" stroke-width="1.5"></path><path d="M1444.96 378.52L1567.05 366.62" stroke="hsl(42.60000000000002, 99%, 79.5%)" stroke-width="1.5"></path><path d="M1444.96 378.52L1591.57 497.18" stroke="hsl(42.60000000000002, 99%, 79.5%)" stroke-width="1.5"></path><path d="M1444.96 378.52L1609.07 235.11" stroke="hsl(42.60000000000002, 99%, 79.5%)" stroke-width="1.5"></path><path d="M1441.29 497.51L1441.29 497.51" stroke="hsl(42.60000000000002, 99%, 79.5%)" stroke-width="1.5"></path><path d="M1441.29 497.51L1591.57 497.18" stroke="hsl(42.60000000000002, 99%, 79.5%)" stroke-width="1.5"></path><path d="M1441.29 497.51L1459.99 653.68" stroke="hsl(42.60000000000002, 99%, 79.5%)" stroke-width="1.5"></path><path d="M1459.99 653.68L1459.99 653.68" stroke="hsl(42.60000000000002, 99%, 79.5%)" stroke-width="1.5"></path><path d="M1548.27 -98.13L1548.27 -98.13" stroke="hsl(42.60000000000002, 99%, 79.5%)" stroke-width="1.5"></path><path d="M1548.27 -98.13L1611.74 45.7" stroke="hsl(42.60000000000002, 99%, 79.5%)" stroke-width="1.5"></path><path d="M1548.27 -98.13L1448.71 77.54" stroke="hsl(42.60000000000002, 99%, 79.5%)" stroke-width="1.5"></path><path d="M1548.27 -98.13L1274.32 -47.05" stroke="hsl(42.60000000000002, 99%, 79.5%)" stroke-width="1.5"></path><path d="M1548.27 -98.13L1609.07 235.11" stroke="hsl(42.60000000000002, 99%, 79.5%)" stroke-width="1.5"></path><path d="M1548.27 -98.13L1269.48 109.48" stroke="hsl(42.60000000000002, 99%, 79.5%)" stroke-width="1.5"></path><path d="M1611.74 45.7L1611.74 45.7" stroke="hsl(42.60000000000002, 99%, 79.5%)" stroke-width="1.5"></path><path d="M1611.74 45.7L1609.07 235.11" stroke="hsl(42.60000000000002, 99%, 79.5%)" stroke-width="1.5"></path><path d="M1609.07 235.11L1609.07 235.11" stroke="hsl(42.60000000000002, 99%, 79.5%)" stroke-width="1.5"></path><path d="M1609.07 235.11L1567.05 366.62" stroke="hsl(42.60000000000002, 99%, 79.5%)" stroke-width="1.5"></path><path d="M1567.05 366.62L1567.05 366.62" stroke="hsl(42.60000000000002, 99%, 79.5%)" stroke-width="1.5"></path><path d="M1567.05 366.62L1591.57 497.18" stroke="hsl(42.60000000000002, 99%, 79.5%)" stroke-width="1.5"></path><path d="M1591.57 497.18L1591.57 497.18" stroke="hsl(42.60000000000002, 99%, 79.5%)" stroke-width="1.5"></path><path d="M1591.57 497.18L1459.99 653.68" stroke="hsl(42.60000000000002, 99%, 79.5%)" stroke-width="1.5"></path><path d="M1591.57 497.18L1609.07 235.11" stroke="hsl(42.60000000000002, 99%, 79.5%)" stroke-width="1.5"></path><circle r="25" cx="66.94" cy="662.95" fill="url(&quot;#SvgjsRadialGradient1007&quot;)"></circle><circle r="25" cx="996.86" cy="256.48" fill="url(&quot;#SvgjsRadialGradient1007&quot;)"></circle><circle r="25" cx="976.31" cy="522.3" fill="url(&quot;#SvgjsRadialGradient1007&quot;)"></circle><circle r="25" cx="1095.45" cy="491.09" fill="url(&quot;#SvgjsRadialGradient1007&quot;)"></circle><circle r="25" cx="1093.58" cy="682.54" fill="url(&quot;#SvgjsRadialGradient1007&quot;)"></circle><circle r="25" cx="1269.48" cy="109.48" fill="url(&quot;#SvgjsRadialGradient1007&quot;)"></circle><circle r="25" cx="1254.38" cy="376.41" fill="url(&quot;#SvgjsRadialGradient1007&quot;)"></circle><circle r="25" cx="1458.37" cy="257.61" fill="url(&quot;#SvgjsRadialGradient1007&quot;)"></circle><circle r="25" cx="1581.23" cy="673.4" fill="url(&quot;#SvgjsRadialGradient1007&quot;)"></circle><circle r="5" cx="-86.68" cy="520.41" fill="#ffe29d"></circle><circle r="5" cx="-86.66" cy="679.53" fill="#ffe29d"></circle><circle r="5" cx="111.88" cy="491.29" fill="#ffe29d"></circle><circle r="5" cx="217.18" cy="503.62" fill="#ffe29d"></circle><circle r="5" cx="349.81" cy="529.76" fill="#ffe29d"></circle><circle r="5" cx="357.04" cy="655.78" fill="#ffe29d"></circle><circle r="5" cx="512.94" cy="538.99" fill="#ffe29d"></circle><circle r="5" cx="678.27" cy="547.89" fill="#ffe29d"></circle><circle r="5" cx="653.16" cy="669.26" fill="#ffe29d"></circle><circle r="5" cx="791.1" cy="386.88" fill="#ffe29d"></circle><circle r="5" cx="790.92" cy="493.17" fill="#ffe29d"></circle><circle r="5" cx="817.93" cy="697.38" fill="#ffe29d"></circle><circle r="5" cx="978.45" cy="407.68" fill="#ffe29d"></circle><circle r="5" cx="972.37" cy="654.06" fill="#ffe29d"></circle><circle r="5" cx="1141.61" cy="210.72" fill="#ffe29d"></circle><circle r="5" cx="1096.93" cy="373.96" fill="#ffe29d"></circle><circle r="5" cx="1274.32" cy="-47.05" fill="#ffe29d"></circle><circle r="5" cx="1243.57" cy="199.1" fill="#ffe29d"></circle><circle r="5" cx="1274.3" cy="530.07" fill="#ffe29d"></circle><circle r="5" cx="1268.53" cy="643.16" fill="#ffe29d"></circle><circle r="5" cx="1451.02" cy="-88.05" fill="#ffe29d"></circle><circle r="5" cx="1448.71" cy="77.54" fill="#ffe29d"></circle><circle r="5" cx="1444.96" cy="378.52" fill="#ffe29d"></circle><circle r="5" cx="1441.29" cy="497.51" fill="#ffe29d"></circle><circle r="5" cx="1459.99" cy="653.68" fill="#ffe29d"></circle><circle r="5" cx="1548.27" cy="-98.13" fill="#ffe29d"></circle><circle r="5" cx="1611.74" cy="45.7" fill="#ffe29d"></circle><circle r="5" cx="1609.07" cy="235.11" fill="#ffe29d"></circle><circle r="5" cx="1567.05" cy="366.62" fill="#ffe29d"></circle><circle r="5" cx="1591.57" cy="497.18" fill="#ffe29d"></circle></g><defs><mask id="SvgjsMask1006"><rect width="1440" height="560" fill="#ffffff"></rect></mask><radialGradient id="SvgjsRadialGradient1007"><stop stop-color="#ffffff" offset="0.1"></stop><stop stop-color="rgba(254, 197, 58, 1)" offset="0.2"></stop><stop stop-color="rgba(254, 197, 58, 0)" offset="1"></stop></radialGradient></defs></svg>