<svg xmlns="http://www.w3.org/2000/svg" width="350" height="80" viewBox="0 0 350 80">
  <g>
    <path d="M46.5,13.7l8.9,3.6L19.6,62.4l-8.1-5.9L46.5,13.7z" fill="#F0290C"/>
    <path d="M69.2,28.7c-3,0-5.7-1.6-7.2-4.2c-0.4-0.7-0.7-1.5-0.9-2.3c-0.2-0.8-0.2-1.6-0.2-2.5c0-3,1.6-5.7,4.2-7.2 c0.7-0.4,1.5-0.7,2.3-0.9c0.8-0.2,1.6-0.2,2.5-0.2c3,0,5.7,1.6,7.2,4.2c0.4,0.7,0.7,1.5,0.9,2.3c0.2,0.8,0.2,1.6,0.2,2.5 c0,3-1.6,5.7-4.2,7.2c-0.7,0.4-1.5,0.7-2.3,0.9C70.9,28.6,70,28.7,69.2,28.7z" fill="#ffffff"/>
    <path d="M11.1,76.7C5,76.7,0,71.8,0,65.6c0-6.2,5-11.1,11.1-11.1c6.2,0,11.1,5,11.1,11.1 C22.3,71.8,17.3,76.7,11.1,76.7z M11.1,65.6L11.1,65.6L11.1,65.6z" fill="#ffffff"/>
    <path d="M46.9,60.2c0-0.2,0-0.4-0.1-0.6c-0.1-0.2-0.1-0.4-0.2-0.6c-0.2-0.4-0.4-0.7-0.7-1c-1.4-1.4-3.7-1.4-5.1,0 c-0.3,0.3-0.5,0.6-0.7,1c-0.1,0.2-0.2,0.4-0.2,0.6c-0.1,0.2-0.1,0.4-0.1,0.6c0,0.2,0,0.4,0.1,0.6c0.1,0.2,0.1,0.4,0.2,0.6 c0.2,0.4,0.4,0.7,0.7,1c0.3,0.3,0.6,0.5,1,0.7c0.2,0.1,0.4,0.2,0.6,0.2c0.2,0.1,0.4,0.1,0.6,0.1c0.2,0,0.4,0,0.6-0.1 c0.2-0.1,0.4-0.1,0.6-0.2c0.4-0.2,0.7-0.4,1-0.7c0.3-0.3,0.5-0.6,0.7-1c0.1-0.2,0.2-0.4,0.2-0.6 C46.9,60.6,46.9,60.4,46.9,60.2z" fill="#ffffff"/>
    <path d="M63.7,63.3c0.4-0.3,0.7-0.6,1-1c2.1-2.9,3.2-6.3,3.2-9.8V18.7c0-3.5-1.1-6.9-3.2-9.8c-0.3-0.4-0.6-0.7-1-1 C58.9,3.1,52.1,0,45,0h0c-7.1,0-13.9,3.1-18.6,8.6c-0.3,0.3-0.7,0.7-1,1c-2.1,2.9-3.2,6.3-3.2,9.8v33.8 c0,3.5,1.1,6.9,3.2,9.8c0.3,0.4,0.6,0.7,1,1c4.8,5.5,11.5,8.6,18.6,8.6h0C52.1,72.5,58.9,68.8,63.7,63.3z" fill="transparent" stroke="#ffffff" stroke-width="2"/>
  </g>
  <g>
    <path d="M124.3,21.7h7.4v36.4h-7.4V21.7z" fill="#fec53a"/>
    <path d="M137.7,21.7h7.4l19.2,24.8V21.7h7.4v36.4h-7.4l-19.2-24.9v24.9h-7.4V21.7z" fill="#fec53a"/>
    <path d="M180.1,21.7h20.7c3.3,0,6.1,0.6,8.4,1.7c2.3,1.1,4.1,2.7,5.3,4.7c1.2,2,1.8,4.3,1.8,6.8c0,2.5-0.6,4.8-1.8,6.8 c-1.2,2-3,3.6-5.3,4.7c-2.3,1.1-5.1,1.7-8.4,1.7h-13.3v10h-7.4V21.7z M200.1,41c2.3,0,4-0.5,5.2-1.6c1.2-1.1,1.8-2.5,1.8-4.3 c0-1.9-0.6-3.3-1.8-4.4c-1.2-1.1-2.9-1.6-5.2-1.6h-12.6V41H200.1z" fill="#fec53a"/>
    <path d="M222.8,21.7h28.2v6.4h-20.8v8.6h18.4v6.4h-18.4v8.6h21.1v6.4h-28.5V21.7z" fill="#fec53a"/>
    <path d="M257.3,21.7h7.4v36.4h-7.4V21.7z" fill="#fec53a"/>
    <path d="M273.6,21.7h29.9v6.4h-22.5v8.6h19.6v6.4h-19.6v15h-7.4V21.7z" fill="#fec53a"/>
    <path d="M309.2,21.7h28.2v6.4h-20.8v8.6H335v6.4h-18.4v8.6h21.1v6.4h-28.5V21.7z" fill="#fec53a"/>
    <path d="M343.7,21.7h7.4v30h-7.4V21.7z" fill="#fec53a"/>
  </g>
</svg>
