<svg width="1200" height="630" xmlns="http://www.w3.org/2000/svg">
  <!-- Background -->
  <rect width="1200" height="630" fill="#000000"/>
  
  <!-- Logo area with proper padding for full visibility -->
  <rect x="300" y="100" width="600" height="300" fill="none" stroke="none"/>
  
  <!-- Centered logo with generous space -->
  <g transform="translate(600, 250)">
    <!-- Logo placeholder - will be replaced with your actual logo -->
    <rect x="-200" y="-150" width="400" height="300" fill="none"/>
    
    <!-- Recreating a simplified version of your woodpecker logo -->
    <g transform="scale(3.5)">
      <!-- Main body -->
      <path d="M-30 -20 Q-25 -35 -15 -40 Q0 -45 15 -40 Q25 -35 30 -20 Q35 0 25 20 Q15 40 0 45 Q-15 40 -25 20 Q-35 0 -30 -20 Z" fill="#4a4a4a"/>
      
      <!-- Head -->
      <ellipse cx="-20" cy="-30" rx="18" ry="15" fill="#4a4a4a"/>
      
      <!-- Beak -->
      <polygon points="-38,-32 -50,-27 -38,-22" fill="#4a4a4a"/>
      
      <!-- Red crest -->
      <path d="M-25 -45 Q-15 -55 -5 -45 Q5 -35 -5 -25 Q-15 -30 -25 -25 Z" fill="#F0290C"/>
      
      <!-- Eye -->
      <circle cx="-10" cy="-32" r="3" fill="#000000"/>
      <circle cx="-9" cy="-33" r="1" fill="#ffffff"/>
      
      <!-- Wing detail -->
      <path d="M0 -10 Q15 -5 20 10 Q15 15 5 12 Q-5 5 0 -10" fill="#3a3a3a"/>
      
      <!-- Tail -->
      <path d="M25 10 Q35 25 45 30 Q40 35 30 32 Q20 25 25 10" fill="#4a4a4a"/>
      
      <!-- Legs -->
      <rect x="-8" y="40" width="3" height="15" fill="#4a4a4a"/>
      <rect x="5" y="40" width="3" height="15" fill="#4a4a4a"/>
    </g>
  </g>
  
  <!-- Company name -->
  <text x="600" y="450" text-anchor="middle" font-family="Arial, sans-serif" font-size="56" font-weight="bold" fill="#fec53a">LaurelDev</text>
  
  <!-- Tagline -->
  <text x="600" y="510" text-anchor="middle" font-family="Arial, sans-serif" font-size="30" fill="#ffffff">Soluciones Tecnológicas Financieras</text>
  
  <!-- Subtle decorative dots -->
  <circle cx="120" cy="120" r="4" fill="#fec53a" opacity="0.4"/>
  <circle cx="1080" cy="510" r="3" fill="#F0290C" opacity="0.3"/>
  <circle cx="180" cy="520" r="2" fill="#fec53a" opacity="0.5"/>
</svg>